<?xml version="1.0" encoding="UTF-8"?>
<svg width="156px" height="97px" viewBox="0 0 156 97" version="1.1" xmlns="http://www.w3.org/2000/svg" xmlns:xlink="http://www.w3.org/1999/xlink">
    <title>8CF2C856-CF4F-4A5E-BAE7-65A3F3B88269</title>
    <defs>
        <polygon id="path-1" points="0 0 149.156857 0 149.156857 74.970707 0 74.970707"></polygon>
        <polygon id="path-3" points="0 0 99.837609 0 99.837609 3.39505573 0 3.39505573"></polygon>
        <polygon id="path-5" points="0 0 43.7619935 0 43.7619935 2.57589817 0 2.57589817"></polygon>
    </defs>
    <g id="Page-1" stroke="none" stroke-width="1" fill="none" fill-rule="evenodd">
        <g id="Aucation---Details---UpComming" transform="translate(-477.000000, -530.000000)">
            <g id="Group-26" transform="translate(166.000000, 323.000000)">
                <g id="Group-25" transform="translate(0.000000, 95.000000)">
                    <g id="Group-22" transform="translate(26.000000, 31.000000)">
                        <g id="Group-18" transform="translate(220.000000, 81.000000)">
                            <g id="Group-226" transform="translate(65.000000, 0.000000)">
                                <g id="Group-3" transform="translate(6.843143, 0.000000)">
                                    <mask id="mask-2" fill="white">
                                        <use xlink:href="#path-1"></use>
                                    </mask>
                                    <g id="Clip-2"></g>
                                </g>
                                <g id="Group-6" transform="translate(0.000000, 79.184918)">
                                    <mask id="mask-4" fill="white">
                                        <use xlink:href="#path-3"></use>
                                    </mask>
                                    <g id="Clip-5"></g>
                                    <path d="M99.837609,1.69752786 C99.837609,2.63494366 77.4882351,3.39505573 49.9189123,3.39505573 C22.3493499,3.39505573 -2.39579076e-05,2.63494366 -2.39579076e-05,1.69752786 C-2.39579076e-05,0.760112069 22.3493499,0 49.9189123,0 C77.4882351,0 99.837609,0.760112069 99.837609,1.69752786" id="Fill-4" fill="#DDE3E7" mask="url(#mask-4)"></path>
                                </g>
                                <polygon id="Fill-7" fill="#DDE3E7" points="7.39633321 80.7629692 71.07765 80.7629692 81.5228187 25.580649 17.8415019 25.580649"></polygon>
                                <polygon id="Fill-9" fill="#DFF8FF" points="92.4401258 80.7629692 28.7585694 80.7629692 18.3136403 25.580649 81.9949572 25.580649"></polygon>
                                <path d="M77.7807612,29.215925 C77.7807612,30.5514378 76.6952284,31.6341376 75.3562209,31.6341376 C74.0172134,31.6341376 72.9314411,30.5514378 72.9314411,29.215925 C72.9314411,27.8801732 74.0172134,26.7974735 75.3562209,26.7974735 C76.6952284,26.7974735 77.7807612,27.8801732 77.7807612,29.215925" id="Fill-11" fill="#FFFFFF"></path>
                                <path d="M76.7040689,28.8062626 C76.7040689,29.5486921 76.1005692,30.1506167 75.356197,30.1506167 C74.6118248,30.1506167 74.0083251,29.5486921 74.0083251,28.8062626 L74.0083251,22.7569079 C74.0083251,22.0144785 74.6118248,21.4125538 75.356197,21.4125538 C76.1005692,21.4125538 76.7040689,22.0144785 76.7040689,22.7569079 L76.7040689,28.8062626 Z" id="Fill-13" fill="#1D2122"></path>
                                <path d="M68.6456349,29.215925 C68.6456349,30.5514378 67.5601021,31.6341376 66.2208551,31.6341376 C64.8818476,31.6341376 63.7963148,30.5514378 63.7963148,29.215925 C63.7963148,27.8801732 64.8818476,26.7974735 66.2208551,26.7974735 C67.5601021,26.7974735 68.6456349,27.8801732 68.6456349,29.215925" id="Fill-15" fill="#FFFFFF"></path>
                                <path d="M67.5688228,28.8062626 C67.5688228,29.5486921 66.9653231,30.1506167 66.2209509,30.1506167 C65.4765787,30.1506167 64.873079,29.5486921 64.873079,28.8062626 L64.873079,22.7569079 C64.873079,22.0144785 65.4765787,21.4125538 66.2209509,21.4125538 C66.9653231,21.4125538 67.5688228,22.0144785 67.5688228,22.7569079 L67.5688228,28.8062626 Z" id="Fill-17" fill="#1D2122"></path>
                                <path d="M59.510293,29.215925 C59.510293,30.5514378 58.4247602,31.6341376 57.0857527,31.6341376 C55.7467453,31.6341376 54.6609729,30.5514378 54.6609729,29.215925 C54.6609729,27.8801732 55.7467453,26.7974735 57.0857527,26.7974735 C58.4247602,26.7974735 59.510293,27.8801732 59.510293,29.215925" id="Fill-19" fill="#FFFFFF"></path>
                                <path d="M58.4335767,28.8062626 C58.4335767,29.5486921 57.830077,30.1506167 57.0857048,30.1506167 C56.3413326,30.1506167 55.7378329,29.5486921 55.7378329,28.8062626 L55.7378329,22.7569079 C55.7378329,22.0144785 56.3413326,21.4125538 57.0857048,21.4125538 C57.830077,21.4125538 58.4335767,22.0144785 58.4335767,22.7569079 L58.4335767,28.8062626 Z" id="Fill-21" fill="#1D2122"></path>
                                <path d="M50.3750469,29.215925 C50.3750469,30.5514378 49.2895141,31.6341376 47.9505066,31.6341376 C46.6114992,31.6341376 45.5257268,30.5514378 45.5257268,29.215925 C45.5257268,27.8801732 46.6114992,26.7974735 47.9505066,26.7974735 C49.2895141,26.7974735 50.3750469,27.8801732 50.3750469,29.215925" id="Fill-23" fill="#FFFFFF"></path>
                                <path d="M49.2982348,28.8062626 C49.2982348,29.5486921 48.6947351,30.1506167 47.9506025,30.1506167 C47.2059907,30.1506167 46.6027306,29.5486921 46.6027306,28.8062626 L46.6027306,22.7569079 C46.6027306,22.0144785 47.2059907,21.4125538 47.9506025,21.4125538 C48.6947351,21.4125538 49.2982348,22.0144785 49.2982348,22.7569079 L49.2982348,28.8062626 Z" id="Fill-25" fill="#1D2122"></path>
                                <path d="M41.2398008,29.215925 C41.2398008,30.5514378 40.154268,31.6341376 38.8152606,31.6341376 C37.4762531,31.6341376 36.3904807,30.5514378 36.3904807,29.215925 C36.3904807,27.8801732 37.4762531,26.7974735 38.8152606,26.7974735 C40.154268,26.7974735 41.2398008,27.8801732 41.2398008,29.215925" id="Fill-27" fill="#FFFFFF"></path>
                                <path d="M40.1629887,28.8062626 C40.1629887,29.5486921 39.559489,30.1506167 38.8153564,30.1506167 C38.0707446,30.1506167 37.4674845,29.5486921 37.4674845,28.8062626 L37.4674845,22.7569079 C37.4674845,22.0144785 38.0707446,21.4125538 38.8153564,21.4125538 C39.559489,21.4125538 40.1629887,22.0144785 40.1629887,22.7569079 L40.1629887,28.8062626 Z" id="Fill-29" fill="#1D2122"></path>
                                <path d="M32.1045787,29.215925 C32.1045787,30.5514378 31.0190459,31.6341376 29.6800385,31.6341376 C28.341031,31.6341376 27.2552586,30.5514378 27.2552586,29.215925 C27.2552586,27.8801732 28.341031,26.7974735 29.6800385,26.7974735 C31.0190459,26.7974735 32.1045787,27.8801732 32.1045787,29.215925" id="Fill-31" fill="#FFFFFF"></path>
                                <path d="M31.0277426,28.8062626 C31.0277426,29.5486921 30.4242429,30.1506167 29.6801103,30.1506167 C28.9357381,30.1506167 28.3322384,29.5486921 28.3322384,28.8062626 L28.3322384,22.7569079 C28.3322384,22.0144785 28.9357381,21.4125538 29.6801103,21.4125538 C30.4242429,21.4125538 31.0277426,22.0144785 31.0277426,22.7569079 L31.0277426,28.8062626 Z" id="Fill-33" fill="#1D2122"></path>
                                <polygon id="Fill-35" fill="#FFFFFF" points="74.9639581 41.6750005 81.933553 41.6750005 83.1693019 48.6261669 76.199707 48.6261669"></polygon>
                                <polygon id="Fill-37" fill="#FFFFFF" points="66.8160414 41.6750005 73.7853967 41.6750005 75.0213852 48.6261669 68.0517902 48.6261669"></polygon>
                                <polygon id="Fill-39" fill="#FFFFFF" points="58.6680048 41.6750005 65.6375998 41.6750005 66.8733487 48.6261669 59.9037537 48.6261669"></polygon>
                                <polygon id="Fill-41" fill="#FFFFFF" points="50.520112 41.6750005 57.489707 41.6750005 58.7254559 48.6261669 51.7558609 48.6261669"></polygon>
                                <polygon id="Fill-43" fill="#FFFFFF" points="42.3721953 41.6750005 49.3417903 41.6750005 50.5775392 48.6261669 43.6079442 48.6261669"></polygon>
                                <polyline id="Stroke-201" stroke="#008FBE" stroke-width="0.78075" stroke-linecap="round" stroke-linejoin="round" points="44 44.6132065 45.7099782 47 49 41"></polyline>
                                <polygon id="Fill-45" fill="#FFFFFF" points="34.2242786 41.6750005 41.193634 41.6750005 42.4296224 48.6261669 35.4600275 48.6261669"></polygon>
                                <polygon id="Fill-47" fill="#FFFFFF" points="26.076266 41.6750005 33.045861 41.6750005 34.2816098 48.6261669 27.3120149 48.6261669"></polygon>
                                <polygon id="Fill-49" fill="#FFFFFF" points="76.4423766 49.6961781 83.4119716 49.6961781 84.6477205 56.6475834 77.6781255 56.6475834"></polygon>
                                <polygon id="Fill-51" fill="#FFFFFF" points="68.2944599 49.6961781 75.2640548 49.6961781 76.4998037 56.6475834 69.5302088 56.6475834"></polygon>
                                <polygon id="Fill-53" fill="#FFFFFF" points="60.1465432 49.6961781 67.1158985 49.6961781 68.351887 56.6475834 61.382292 56.6475834"></polygon>
                                <polygon id="Fill-55" fill="#FFFFFF" points="51.9985306 49.6961781 58.9681255 49.6961781 60.2038744 56.6475834 53.2342795 56.6475834"></polygon>
                                <polygon id="Fill-57" fill="#FFFFFF" points="43.8506138 49.6961781 50.8202088 49.6961781 52.0559577 56.6475834 45.0863627 56.6475834"></polygon>
                                <polygon id="Fill-59" fill="#FFFFFF" points="35.7026971 49.6961781 42.6722921 49.6961781 43.9080409 56.6475834 36.938446 56.6475834"></polygon>
                                <polygon id="Fill-61" fill="#FFFFFF" points="27.5548043 49.6961781 34.5243993 49.6961781 35.7601482 56.6475834 28.7905532 56.6475834"></polygon>
                                <polygon id="Fill-63" fill="#FFFFFF" points="77.8540005 57.7174752 84.8233559 57.7174752 86.0593444 64.6686415 79.089989 64.6686415"></polygon>
                                <polygon id="Fill-65" fill="#FFFFFF" points="69.7060838 57.7174752 76.6756787 57.7174752 77.9114276 64.6686415 70.9418327 64.6686415"></polygon>
                                <polygon id="Fill-67" fill="#FFFFFF" points="61.558167 57.7174752 68.527762 57.7174752 69.7635109 64.6686415 62.7939159 64.6686415"></polygon>
                                <polygon id="Fill-69" fill="#FFFFFF" points="53.4102503 57.7174752 60.3796057 57.7174752 61.6155941 64.6686415 54.6459992 64.6686415"></polygon>
                                <polygon id="Fill-71" fill="#FFFFFF" points="45.2622377 57.7174752 52.2318327 57.7174752 53.4675816 64.6686415 46.4979866 64.6686415"></polygon>
                                <polygon id="Fill-73" fill="#FFFFFF" points="37.114321 57.7174752 44.083916 57.7174752 45.3196648 64.6686415 38.3500699 64.6686415"></polygon>
                                <polygon id="Fill-75" fill="#FFFFFF" points="28.9664043 57.7174752 35.9359992 57.7174752 37.1717481 64.6686415 30.2021531 64.6686415"></polygon>
                                <polygon id="Fill-77" fill="#FFFFFF" points="79.3383846 65.7385333 86.3079795 65.7385333 87.5437284 72.6899386 80.5741334 72.6899386"></polygon>
                                <polygon id="Fill-79" fill="#FFFFFF" points="71.1904678 65.7385333 78.1598232 65.7385333 79.3958117 72.6899386 72.4262167 72.6899386"></polygon>
                                <polygon id="Fill-81" fill="#FFFFFF" points="63.0424313 65.7385333 70.0120263 65.7385333 71.2477751 72.6899386 64.2781802 72.6899386"></polygon>
                                <polygon id="Fill-83" fill="#FFFFFF" points="54.8945385 65.7385333 61.8641335 65.7385333 63.0998824 72.6899386 56.1302874 72.6899386"></polygon>
                                <polygon id="Fill-85" fill="#FFFFFF" points="46.7466218 65.7385333 53.7162167 65.7385333 54.9519656 72.6899386 47.9823707 72.6899386"></polygon>
                                <polygon id="Fill-87" fill="#FFFFFF" points="38.598705 65.7385333 45.5680604 65.7385333 46.8040489 72.6899386 39.8344539 72.6899386"></polygon>
                                <polygon id="Fill-89" fill="#FFFFFF" points="30.4507883 65.7385333 37.4201437 65.7385333 38.6561321 72.6899386 31.6865372 72.6899386"></polygon>
                                <line x1="40.1739854" y1="41.6750005" x2="36.8102951" y2="47.8213704" id="Stroke-95" stroke="#FF7C6E" stroke-width="1.02192" stroke-linecap="round"></line>
                                <line x1="35.9653237" y1="42.3659594" x2="41.0190048" y2="47.3854231" id="Stroke-97" stroke="#FF7C6E" stroke-width="1.02192" stroke-linecap="round"></line>
                                <line x1="31.65992" y1="41.6750005" x2="28.2962297" y2="47.8213704" id="Stroke-99" stroke="#FF7C6E" stroke-width="1.02192" stroke-linecap="round"></line>
                                <line x1="27.4512583" y1="42.3659594" x2="32.5049393" y2="47.3854231" id="Stroke-101" stroke="#FF7C6E" stroke-width="1.02192" stroke-linecap="round"></line>
                                <path d="M124.866843,43.3829229 C124.866843,43.3829229 133.471565,39.8963479 135.692942,33.6517679 C137.914559,27.4069491 143.9359,23.1170113 143.9359,23.1170113 C143.9359,23.1170113 126.305755,27.8272688 121.137315,42.7487395 L124.866843,43.3829229 Z" id="Fill-106" fill="#00B189"></path>
                                <path d="M143.935828,23.1171308 C143.935828,23.1171308 128.293949,31.8776554 123.332267,44.2069551" id="Stroke-108" stroke="#442020" stroke-width="0.5"></path>
                                <path d="M125.388095,48.0089253 C125.388095,48.0089253 129.783652,41.5844131 135.767379,39.3442212 C138.021339,38.5004753 140.236487,37.2765539 142.108079,35.6645715 C143.449003,34.5099467 144.684992,32.1557737 146.639478,32.2360622 C150.765748,32.4050025 147.667512,37.7819412 146.525438,39.3705061 C142.661267,44.1710881 139.385023,43.5961653 135.319366,44.9742119 C131.25347,46.3522585 127.601805,51.5633632 127.227343,52.1691111 C126.852642,52.774859 125.388095,48.0089253 125.388095,48.0089253" id="Fill-112" fill="#00B189"></path>
                                <path d="M127.519294,47.7389314 C127.519294,47.7389314 132.032964,42.1206494 137.285975,40.9729542 C142.538507,39.8252591 146.317388,34.6139155 146.317388,34.6139155" id="Stroke-114" stroke="#442020" stroke-width="0.5"></path>
                                <path d="M78.2305709,82.6648025 C78.2305709,82.6648025 70.7154544,78.8616137 63.3493561,77.3801001 C55.9832577,75.8988254 49.4300512,65.81832 41.3389866,65.6400604 C46.3385228,71.6863087 47.1789662,79.8176679 62.6440352,82.4165295 C67.8306827,83.1570474 75.4615159,86.2309492 79.495788,88.6620652 C83.5302997,91.0929423 78.2305709,82.6648025 78.2305709,82.6648025" id="Fill-118" fill="#00B189"></path>
                                <path d="M75.6382294,84.3850788 C75.6382294,84.3850788 68.1075403,80.860988 60.7491085,79.8600105 C53.3904371,78.8592719 46.5516523,69.7226341 46.5516523,69.7226341 C46.5516523,69.7226341 54.7409444,78.3773021 60.7728268,78.9653674 C66.8047093,79.5536717 75.3155164,83.0457427 75.3155164,83.0457427 L75.6382294,84.3850788 Z" id="Fill-120" fill="#442020"></path>
                                <path d="M79.0185465,79.0490013 C79.0185465,79.0490013 74.3733477,73.7301284 67.621051,72.1843362 C60.8685147,70.638783 53.7022253,67.2050167 48.1748964,61.1554231" id="Stroke-124" stroke="#222222" stroke-width="0.56472"></path>
                                <path d="M70.7997383,73.1117876 C70.7997383,73.1117876 71.6073594,71.6450892 70.2676332,70.2835303 C69.514157,71.314855 70.1123859,72.2799894 70.7997383,73.1117876" id="Fill-126" fill="#5F5277"></path>
                                <path d="M70.7997383,73.1117876 C70.7997383,73.1117876 70.3637044,74.7275933 68.4516238,74.7839864 C68.6245999,73.5196818 69.7261845,73.2367605 70.7997383,73.1117876" id="Fill-128" fill="#5F5277"></path>
                                <path d="M67.1183183,72.0764008 C67.1183183,72.0764008 67.9259393,70.6099413 66.5862131,69.2481435 C65.8327369,70.2794681 66.4309659,71.2446026 67.1183183,72.0764008" id="Fill-130" fill="#5F5277"></path>
                                <path d="M67.1183183,72.0764008 C67.1183183,72.0764008 66.6822844,73.6922064 64.7702037,73.7488385 C64.9431798,72.4842949 66.0447644,72.2016126 67.1183183,72.0764008" id="Fill-132" fill="#222222"></path>
                                <path d="M63.8492618,70.9950392 C63.8492618,70.9950392 64.4333556,69.4267854 62.9084347,68.274789 C62.3142786,69.4050406 63.0473906,70.2724429 63.8492618,70.9950392" id="Fill-134" fill="#222222"></path>
                                <path d="M63.8492618,70.9950392 C63.8492618,70.9950392 63.654484,72.656963 61.7713924,72.9914983 C61.7572572,71.7157239 62.8056553,71.275332 63.8492618,70.9950392" id="Fill-136" fill="#222222"></path>
                                <path d="M60.5107273,69.7526706 C60.5107273,69.7526706 61.0948211,68.1841778 59.5699003,67.0321814 C58.9759837,68.162433 59.7088561,69.0298353 60.5107273,69.7526706" id="Fill-138" fill="#222222"></path>
                                <path d="M60.5107273,69.7526706 C60.5107273,69.7526706 60.3161891,71.4145943 58.432858,71.7488907 C58.4189624,70.4731163 59.4671208,70.0329634 60.5107273,69.7526706" id="Fill-140" fill="#222222"></path>
                                <path d="M57.4689595,68.1894347 C57.4689595,68.1894347 58.6079184,66.9607343 57.6376231,65.316732 C56.6567864,66.1358657 57.0034573,67.2164148 57.4689595,68.1894347" id="Fill-142" fill="#222222"></path>
                                <path d="M57.4689595,68.1894347 C57.4689595,68.1894347 56.6546302,69.652071 54.7854342,69.2463274 C55.2595612,68.0611165 56.3968431,68.0522753 57.4689595,68.1894347" id="Fill-144" fill="#222222"></path>
                                <path d="M54.2626008,66.5522188 C54.2626008,66.5522188 55.4015597,65.3237573 54.4312645,63.6797551 C53.4504277,64.4988887 53.7970986,65.5794379 54.2626008,66.5522188" id="Fill-146" fill="#222222"></path>
                                <path d="M54.2626008,66.5522188 C54.2626008,66.5522188 53.4482715,68.015094 51.5790755,67.6093505 C52.0532025,66.4241396 53.1904844,66.4150593 54.2626008,66.5522188" id="Fill-148" fill="#222222"></path>
                                <path d="M51.3567701,63.9750781 C51.3567701,63.9750781 52.5354992,62.7848492 51.6200675,61.109544 C50.6126375,61.8964189 50.9236111,62.987482 51.3567701,63.9750781" id="Fill-150" fill="#222222"></path>
                                <path d="M51.3567701,63.9750781 C51.3567701,63.9750781 50.494525,65.4104736 48.6399434,64.9435579 C49.1528822,63.7743569 50.2896849,63.8027924 51.3567701,63.9750781" id="Fill-152" fill="#222222"></path>
                                <path d="M48.7140212,61.6518019 C48.7140212,61.6518019 47.0422384,61.5120139 46.6454955,59.6455457 C47.9238894,59.5898695 48.3992143,60.6204772 48.7140212,61.6518019" id="Fill-154" fill="#222222"></path>
                                <path d="M78.4962162,89.2505129 C78.4962162,89.2505129 69.6073532,92.9148696 63.4185465,89.9176719 C57.2295002,86.9204743 49.6616763,88.1197835 49.6616763,88.1197835 C49.6616763,88.1197835 66.1008738,78.8165948 80.7858734,86.0793569 L78.4962162,89.2505129 Z" id="Fill-156" fill="#00B189"></path>
                                <path d="M49.6615804,88.119664 C49.6615804,88.119664 67.58521,83.2459621 80.2287562,88.7462009" id="Stroke-158" stroke="#442020" stroke-width="0.5"></path>
                                <line x1="124.066912" y1="45.3255935" x2="125.903046" y2="46.4787846" id="Stroke-162" stroke="#AA4944" stroke-width="0.5" stroke-linecap="round"></line>
                                <path d="M127.758394,50.5486219 C128.691315,51.4755238 129.692277,52.4635978 130.663051,53.4186962 C130.831954,50.7820798 127.758873,50.5486219 127.758394,50.5486219" id="Fill-164" fill="#D25C53"></path>
                                <g id="Group-168" transform="translate(75.908954, 94.424102)">
                                    <mask id="mask-6" fill="white">
                                        <use xlink:href="#path-5"></use>
                                    </mask>
                                    <g id="Clip-167"></g>
                                    <path d="M43.7619935,1.28796103 C43.7619935,1.99932653 33.9653655,2.57592207 21.8809968,2.57592207 C9.79662808,2.57592207 0,1.99932653 0,1.28796103 C0,0.576595543 9.79662808,0 21.8809968,0 C33.9653655,0 43.7619935,0.576595543 43.7619935,1.28796103" id="Fill-166" fill="#EEF2F5" mask="url(#mask-6)"></path>
                                </g>
                                <polygon id="Fill-169" fill="#39CBF2" points="117.391903 35.5352497 111.999458 32.2039946 115.621174 26.371849 121.01362 29.703343"></polygon>
                                <polygon id="Fill-171" fill="#222222" points="119.656213 31.8893402 114.263528 28.5580852 115.621222 26.3718968 121.013668 29.7033908"></polygon>
                                <path d="M121.172533,31.7408065 L113.707728,27.129237 C113.111656,26.7610091 112.927898,25.980825 113.29709,25.3863079 L114.735283,23.0703675 C115.104235,22.4760894 115.88694,22.2925729 116.482773,22.6608007 L123.947578,27.2723703 C124.543411,27.6403592 124.727408,28.4207823 124.358216,29.0152994 L122.920023,31.3312397 C122.550832,31.9255178 121.768366,32.1090344 121.172533,31.7408065" id="Fill-173" fill="#00AAD8"></path>
                                <polygon id="Fill-175" fill="#008FBE" points="114.750688 27.7735759 113.707561 27.1293564 116.482605 22.6609202 117.525732 23.3051397"></polygon>
                                <polygon id="Fill-177" fill="#008FBE" points="116.895903 29.0987898 115.852776 28.4545704 118.62782 23.9861341 119.670947 24.6303536"></polygon>
                                <polygon id="Fill-179" fill="#008FBE" points="119.041118 30.4241233 117.997991 29.7796648 120.773035 25.3112286 121.816162 25.955687"></polygon>
                                <polygon id="Fill-181" fill="#008FBE" points="121.186333 31.7493372 120.143206 31.1048788 122.91849 26.6364425 123.961377 27.2809009"></polygon>
                                <polygon id="Fill-183" fill="#39CBF2" points="78.1253957 35.5352497 83.5178416 32.2039946 79.8961247 26.371849 74.5036788 29.703343"></polygon>
                                <polygon id="Fill-185" fill="#222222" points="75.8612057 31.8893402 81.2536516 28.5580852 79.8961965 26.3718968 74.5035111 29.7033908"></polygon>
                                <path d="M74.3448858,31.7408065 L81.8096907,27.129237 C82.4057634,26.7610091 82.5895206,25.980825 82.2203292,25.3863079 L80.782136,23.0703675 C80.4129446,22.4760894 79.6304794,22.2925729 79.0346462,22.6608007 L71.5698413,27.2723703 C70.9740081,27.6403592 70.7900114,28.4207823 71.1592028,29.0152994 L72.597396,31.3312397 C72.9665873,31.9255178 73.748813,32.1090344 74.3448858,31.7408065" id="Fill-187" fill="#00AAD8"></path>
                                <polygon id="Fill-189" fill="#008FBE" points="80.7664915 27.7735759 81.8096188 27.1293564 79.0345743 22.6609202 77.991447 23.3051397"></polygon>
                                <polygon id="Fill-191" fill="#008FBE" points="78.6213963 29.0987898 79.6645236 28.4545704 76.8894791 23.9861341 75.8463518 24.6303536"></polygon>
                                <polygon id="Fill-193" fill="#008FBE" points="76.4761812 30.4241233 77.5193085 29.7796648 74.7442641 25.3112286 73.7011368 25.955687"></polygon>
                                <polygon id="Fill-195" fill="#008FBE" points="74.3309662 31.7493372 75.3740935 31.1048788 72.5990491 26.6364425 71.5559217 27.2809009"></polygon>
                                <polygon id="Fill-197" fill="#39CBF2" points="92.8289866 30.508235 102.695572 30.508235 102.695572 19.8375137 92.8289866 19.8375137"></polygon>
                                <polygon id="Fill-199" fill="#222222" points="92.8289866 23.8373615 102.695572 23.8373615 102.695572 19.8375137 92.8289866 19.8375137"></polygon>
                                <path d="M132.677719,60.9641167 C132.677719,41.728335 117.043268,26.1346873 97.7571522,26.1346873 C78.4710364,26.1346873 62.836585,41.728335 62.836585,60.9641167 C62.836585,80.1996594 78.4710364,95.7935461 97.7571522,95.7935461 C117.043268,95.7935461 132.677719,80.1996594 132.677719,60.9641167" id="Fill-200" fill="#008FBE"></path>
                                <path d="M130.382768,60.9435667 C130.382768,42.9720896 115.775631,28.4030758 97.7571282,28.4030758 C79.7386254,28.4030758 65.1317286,42.9720896 65.1317286,60.9435667 C65.1317286,78.9150438 79.7386254,93.4838186 97.7571282,93.4838186 C115.775631,93.4838186 130.382768,78.9150438 130.382768,60.9435667" id="Fill-201" fill="#00AAD8"></path>
                                <path d="M128.226101,60.8976159 C128.226101,44.1139782 114.584707,30.5081872 97.7571522,30.5081872 C80.9295969,30.5081872 67.2882038,44.1139782 67.2882038,60.8976159 C67.2882038,77.6812536 80.9295969,91.2870445 97.7571522,91.2870445 C114.584707,91.2870445 128.226101,77.6812536 128.226101,60.8976159" id="Fill-202" fill="#FFFFFF"></path>
                                <path d="M117.599211,73.0410812 C117.648804,72.3880204 118.25997,71.9380704 118.787523,72.2229034 C119.912587,72.8303239 121.017526,73.476933 122.115037,74.133817 C122.475843,74.3500702 122.54053,74.8480499 122.321315,75.2012236 C122.098267,75.5601323 121.641869,75.6894063 121.233626,75.4640728 C120.362756,74.9830588 119.504584,74.4793442 118.642099,73.9839929 C118.440373,73.8683393 118.21445,73.7775368 118.046745,73.6241285 C117.868498,73.4616399 117.746073,73.2379791 117.599211,73.0410812" id="Fill-203" fill="#DFE6EC"></path>
                                <path d="M98.5629525,86.7139465 C98.5629525,87.2948432 98.5670253,87.8757399 98.5617546,88.4566366 C98.5574422,88.9672809 98.2299376,89.3245169 97.7742581,89.3297739 C97.2948604,89.3355088 96.946752,88.9749275 96.9453145,88.4520965 C96.9422,87.2905421 96.9433979,86.1287486 96.9491478,84.9669552 C96.9515436,84.4219016 97.269465,84.0809145 97.7574876,84.0801956 C98.2435936,84.0792418 98.5543276,84.4185562 98.5598379,84.9712564 C98.5658274,85.5521531 98.5610358,86.1330498 98.5610358,86.7139465 L98.5629525,86.7139465 Z" id="Fill-204" fill="#DFE6EC"></path>
                                <path d="M123.514299,61.8233229 C122.931643,61.8233229 122.348986,61.828341 121.76633,61.8218892 C121.208111,61.8156764 120.880846,61.5102934 120.882754,61.0139864 C120.8842,60.5437253 121.209309,60.2271115 121.746205,60.2218545 C122.924216,60.2101458 124.102705,60.2108626 125.280955,60.219465 C125.787904,60.2232882 126.140086,60.5743114 126.134815,61.0323858 C126.130023,61.4942835 125.783352,61.8130479 125.262268,61.8187828 C124.679612,61.8257125 124.097195,61.8204555 123.514299,61.8204555 L123.514299,61.8233229 Z" id="Fill-205" fill="#DFE6EC"></path>
                                <path d="M86.5931265,81.7915936 C86.5650958,81.8625629 86.5186174,82.0374771 86.4321294,82.1899296 C85.8645666,83.1875618 85.2919726,84.1823265 84.7138682,85.1737458 C84.4524875,85.6217842 83.9915373,85.7687408 83.5962319,85.5474696 C83.1661874,85.3066042 83.0416063,84.8473349 83.3046641,84.3840035 C83.8839663,83.3634318 84.4711746,82.3469223 85.0636537,81.334236 C85.2905351,80.9468919 85.6743408,80.7891824 86.0514382,80.9229965 C86.402182,81.0472525 86.5967202,81.3000656 86.5931265,81.7915936" id="Fill-206" fill="#DFE6EC"></path>
                                <path d="M109.904602,80.8835932 C110.016725,80.9751362 110.301105,81.111101 110.440061,81.3366734 C111.049071,82.3259421 111.622384,83.3379115 112.195936,84.3484472 C112.468098,84.8280275 112.361486,85.2935095 111.956118,85.5305517 C111.528469,85.7802584 111.076862,85.6392757 110.783618,85.1398622 C110.195211,84.1376899 109.610399,83.1328891 109.039722,82.1204418 C108.70455,81.5264027 109.075898,80.8790768 109.904602,80.8835932" id="Fill-207" fill="#DFE6EC"></path>
                                <path d="M72.0039586,61.8142188 C71.4213023,61.8139798 70.8386459,61.8194758 70.2562292,61.8125461 C69.7222074,61.8060944 69.399734,61.5023841 69.399734,61.0237596 C69.399734,60.5489584 69.7248428,60.2313887 70.258625,60.2261318 C71.4236981,60.214423 72.5890107,60.2134672 73.7543233,60.2187242 C74.2689392,60.2211137 74.6297453,60.5566049 74.6357348,61.006316 C74.642443,61.4949765 74.3096676,61.8056164 73.751688,61.8127851 C73.1692712,61.8204316 72.5866149,61.8144577 72.0039586,61.8142188" id="Fill-208" fill="#DFE6EC"></path>
                                <path d="M73.9418898,75.573442 C73.4919603,75.5419001 73.2344128,75.3598173 73.1194148,74.9985191 C73.0063335,74.6427169 73.1428936,74.2804629 73.4967519,74.0723342 C74.4095481,73.535166 75.3295318,73.0106624 76.2473593,72.4818576 C76.3815235,72.4046755 76.5154482,72.3255818 76.6541645,72.257241 C77.0808549,72.0472006 77.5389301,72.1834043 77.7545512,72.5803066 C77.9593913,72.9566588 77.8374456,73.4089984 77.434234,73.6498638 C76.7135801,74.0802196 75.9819056,74.492176 75.2545436,74.9115399 C74.9636946,75.0795245 74.6773976,75.2561113 74.3798403,75.4107145 C74.2231556,75.4924367 74.0463463,75.5359262 73.9418898,75.573442" id="Fill-209" fill="#DFE6EC"></path>
                                <path d="M98.5486975,35.3521871 C98.5486975,35.932367 98.5525308,36.5125468 98.5474996,37.0929657 C98.5431872,37.6002646 98.2214325,37.9455528 97.7506596,37.9610848 C97.3304379,37.9749442 96.9636423,37.6141239 96.958132,37.1283308 C96.9454343,35.9421641 96.9466322,34.7557584 96.9583716,33.5698307 C96.9634028,33.0854713 97.3189381,32.7420947 97.7585657,32.7473517 C98.2310157,32.7528476 98.5407914,33.0895335 98.5441455,33.6114086 C98.5482184,34.1918274 98.5451038,34.7720073 98.5451038,35.3521871 L98.5486975,35.3521871 Z" id="Fill-210" fill="#DFE6EC"></path>
                                <path d="M118.562678,49.8827573 C118.112509,49.8837091 117.846097,49.7145298 117.722714,49.3527537 C117.593102,48.9725782 117.721756,48.6136696 118.096218,48.3909646 C118.86335,47.9352797 119.641024,47.4975163 120.414385,47.0525843 C120.683672,46.8979812 120.948407,46.7345368 121.223444,46.5916424 C121.638874,46.3761061 122.089522,46.4931935 122.312331,46.8597486 C122.550951,47.2521108 122.451047,47.7116189 122.024357,47.9641931 C120.977636,48.5838003 119.919415,49.1835744 118.861913,49.7850212 C118.753863,49.8464323 118.620896,49.8643538 118.562678,49.8827573" id="Fill-211" fill="#DFE6EC"></path>
                                <path d="M112.366828,37.2045332 C112.301663,37.3782526 112.265726,37.5309441 112.191456,37.6616518 C111.617425,38.66932 111.042914,39.6767493 110.454029,40.6758152 C110.172763,41.1532449 109.721396,41.2837137 109.306205,41.0428482 C108.908983,40.8124968 108.803329,40.3594403 109.068303,39.895392 C109.650001,38.8774488 110.233856,37.8602224 110.839751,36.8566164 C111.173964,36.3034384 111.777464,36.2546918 112.150728,36.7309267 C112.255184,36.864263 112.297111,37.0465847 112.366828,37.2045332" id="Fill-212" fill="#DFE6EC"></path>
                                <path d="M76.9216546,49.8740076 C76.862239,49.851068 76.7110646,49.8140301 76.5807335,49.7397155 C75.5598871,49.1569072 74.5409573,48.5700366 73.5256211,47.9779091 C73.1173784,47.7399111 72.9784225,47.2534011 73.195002,46.8796774 C73.4089461,46.5107327 73.8670213,46.3690331 74.2769411,46.597234 C75.3380369,47.1876888 76.3902682,47.7941536 77.4367496,48.4099376 C77.7961182,48.6211727 77.9159077,48.9829488 77.784858,49.3409016 C77.6557249,49.6931195 77.3998544,49.8787866 76.9216546,49.8740076" id="Fill-213" fill="#DFE6EC"></path>
                                <path d="M86.5823694,40.2675387 C86.5905151,40.7112759 86.3823209,41.0044722 86.014567,41.1115236 C85.6465736,41.2183359 85.3346416,41.1053108 85.1432179,40.7853516 C84.5145624,39.7346717 83.8957297,38.677779 83.29223,37.6127619 C83.0655882,37.2132311 83.2126897,36.7386688 83.5768499,36.5324517 C83.9517912,36.3200218 84.4084289,36.4210992 84.6508829,36.8242143 C85.2754656,37.8619907 85.8780069,38.9129096 86.482465,39.9621557 C86.5447555,40.0701629 86.5622448,40.203977 86.5823694,40.2675387" id="Fill-214" fill="#DFE6EC"></path>
                                <path d="M106.517026,61.0191956 C106.517026,65.8443898 102.595116,69.7560637 97.757296,69.7560637 C92.919236,69.7560637 88.9973265,65.8443898 88.9973265,61.0191956 C88.9973265,56.1940013 92.919236,52.2823274 97.757296,52.2823274 C102.595116,52.2823274 106.517026,56.1940013 106.517026,61.0191956" id="Fill-215" fill="#EEF2F5"></path>
                                <path d="M100.198607,60.8976159 C100.198607,62.2037374 99.1367923,63.2625417 97.8274926,63.2625417 C96.5177138,63.2625417 95.4558993,62.2037374 95.4558993,60.8976159 C95.4558993,59.5912554 96.5177138,58.5324511 97.8274926,58.5324511 C99.1367923,58.5324511 100.198607,59.5912554 100.198607,60.8976159" id="Fill-216" fill="#00AAD8"></path>
                                <path d="M98.6279982,36.8583608 C98.6279982,36.4172521 98.2695879,36.0597772 97.8273249,36.0597772 C97.3850619,36.0597772 97.0264121,36.4172521 97.0264121,36.8583608 L97.0264121,60.8063116 C97.0264121,61.2474203 97.3850619,61.6051342 97.8273249,61.6051342 C98.2695879,61.6051342 98.6279982,61.2474203 98.6279982,60.8063116 L98.6279982,36.8583608 Z" id="Fill-217" fill="#222222"></path>
                                <path d="M85.2064189,69.1956453 C84.8185403,69.4185892 84.3230908,69.285253 84.0998031,68.8986258 C83.8765154,68.5117595 84.009961,68.0173641 84.3978395,67.7948981 L97.4132125,60.3209008 C97.801091,60.0984348 98.2965405,60.2312932 98.5198282,60.6181594 C98.7431159,61.0050256 98.6096704,61.4991821 98.2217919,61.721887 L85.2064189,69.1956453 Z" id="Fill-218" fill="#222222"></path>
                                <path d="M104.578639,22.4018943 L90.9202361,22.4018943 C89.8299118,22.4018943 88.945865,21.5203937 88.945865,20.4326759 L88.945865,16.195308 C88.945865,15.1078292 89.8299118,14.2260897 90.9202361,14.2260897 L104.578639,14.2260897 C105.669203,14.2260897 106.553011,15.1078292 106.553011,16.195308 L106.553011,20.4326759 C106.553011,21.5203937 105.669203,22.4018943 104.578639,22.4018943" id="Fill-219" fill="#00AAD8"></path>
                                <polygon id="Fill-220" fill="#008FBE" points="90.9202601 22.401966 92.8289866 22.401966 92.8289866 14.2261614 90.9202601 14.2261614"></polygon>
                                <polygon id="Fill-221" fill="#008FBE" points="94.8455237 22.401966 96.7540106 22.401966 96.7540106 14.2261614 94.8455237 14.2261614"></polygon>
                                <polygon id="Fill-222" fill="#008FBE" points="98.7705477 22.401966 100.679035 22.401966 100.679035 14.2261614 98.7705477 14.2261614"></polygon>
                                <polygon id="Fill-223" fill="#008FBE" points="102.695332 22.401966 104.603819 22.401966 104.603819 14.2261614 102.695332 14.2261614"></polygon>
                            </g>
                        </g>
                    </g>
                </g>
            </g>
        </g>
    </g>
</svg>