<svg xmlns="http://www.w3.org/2000/svg" xmlns:xlink="http://www.w3.org/1999/xlink" width="62px" height="42px" viewBox="0 0 62 42" version="1.1">
    <!-- Generator: sketchtool 62 (101010) - https://sketch.com -->
    <title>097F2CE8-2E9C-45B6-AB30-C629F4ECAC4F</title>
    <desc>Created with sketchtool.</desc>
    <g id="Page-1" stroke="none" stroke-width="1" fill="none" fill-rule="evenodd">
        <g id="Landing" transform="translate(-1063.000000, -1856.000000)" stroke-width="0.5">
            <g id="Group-11" transform="translate(171.000000, 1846.000000)">
                <g id="Group-10" transform="translate(749.000000, 11.000000)">
                    <g id="Ico-1" transform="translate(144.000000, 0.000000)">
                        <path d="M29.9560986,17.4428095 C31.2699454,17.4428095 32.5205973,17.8737089 33.5430125,18.6554499 C33.913427,18.9386696 33.9841123,19.4685449 33.7008925,19.8389593 C33.4176728,20.2093738 32.8877976,20.2800591 32.5173831,19.9968393 C31.7869556,19.4383527 30.8959662,19.1313715 29.9560986,19.1313715 C29.0268375,19.1313715 28.1452954,19.4314254 27.419224,19.9783147 C27.0467732,20.2588511 26.5174224,20.1843396 26.2368861,19.8118887 C25.9563497,19.4394379 26.0308612,18.9100871 26.403312,18.6295508 C27.419698,17.8639916 28.6571079,17.4428095 29.9560986,17.4428095 Z M29.9560986,13.2214048 C32.1857582,13.2214048 34.3080544,13.9445528 36.0513835,15.2593883 C36.4236567,15.5401604 36.497833,16.0695581 36.217061,16.4418314 C35.9362889,16.8141046 35.4068911,16.888281 35.0346179,16.6075089 C33.581752,15.5117434 31.8156563,14.9099667 29.9560986,14.9099667 C28.1015516,14.9099667 26.3399242,15.5084895 24.8891404,16.5988048 C24.5163885,16.8789411 23.9871181,16.8038612 23.7069819,16.4311093 C23.4268456,16.0583574 23.5019254,15.529087 23.8746773,15.2489508 C25.6155227,13.9406438 27.7324534,13.2214048 29.9560986,13.2214048 Z M29.9560986,9 C33.10732,9 36.1063784,10.019194 38.5728902,11.8734173 C38.945602,12.1536069 39.0206061,12.6828881 38.7404165,13.0555999 C38.4602269,13.4283117 37.9309458,13.5033158 37.558234,13.2231262 C35.3818176,11.5869848 32.7381376,10.6885619 29.9560986,10.6885619 C27.1731229,10.6885619 24.5286075,11.5875926 22.3518014,13.2247517 C21.9791492,13.5050205 21.4498521,13.430129 21.1695833,13.0574768 C20.8893144,12.6848246 20.9642059,12.1555275 21.3368581,11.8752587 C23.8038097,10.0198833 26.8038155,9 29.9560986,9 Z" id="Combined-Shape" stroke="#07C0DE" fill="#078562"/>
                        <g id="noun_Laptop_3035757" fill="#000000" fill-rule="nonzero" stroke="#000000">
                            <path d="M58.5714286,28.5714286 L57.1428571,28.5714286 L57.1428571,2.85714286 C57.1428571,1.28571429 55.8571429,0 54.2857143,0 L5.71428571,0 C4.14285714,0 2.85714286,1.28571429 2.85714286,2.85714286 L2.85714286,28.5714286 L1.42857143,28.5714286 C0.642857143,28.5714286 0,29.2142857 0,30 C0,35.5142857 4.48571429,40 10,40 L50,40 C52.6857143,40 55.2,38.9571429 57.0571429,37.0714286 C58.9571429,35.2 60,32.6857143 60,30 C60,29.2142857 59.3571429,28.5714286 58.5714286,28.5714286 Z M5.71428571,2.85714286 L54.2857143,2.85714286 L54.2857143,28.5714286 L35.7142857,28.5714286 C34.9285714,28.5714286 34.2857143,29.2142857 34.2857143,30 L25.7142857,30 C25.7142857,29.2142857 25.0714286,28.5714286 24.2857143,28.5714286 L5.71428571,28.5714286 L5.71428571,2.85714286 Z M55.0428571,35.0571429 C53.7,36.4 51.9142857,37.1428571 50,37.1428571 L10,37.1428571 C6.54285714,37.1428571 3.67142857,34.6857143 3,31.4285714 L4.28571429,31.4285714 L22.8571429,31.4285714 C22.8571429,32.2142857 23.5,32.8571429 24.2857143,32.8571429 L35.7142857,32.8571429 C36.5,32.8571429 37.1428571,32.2142857 37.1428571,31.4285714 L55.7142857,31.4285714 L57,31.4285714 C56.7285714,32.8 56.0571429,34.0428571 55.0428571,35.0571429 Z" id="Shape"/>
                        </g>
                    </g>
                </g>
            </g>
        </g>
    </g>
</svg>