<svg xmlns="http://www.w3.org/2000/svg" xmlns:xlink="http://www.w3.org/1999/xlink" width="50px" height="50px" viewBox="0 0 50 50" version="1.1">
    <!-- Generator: sketchtool 62 (101010) - https://sketch.com -->
    <title>713121E2-B2BC-4382-B459-C7B1C4DF8D58</title>
    <desc>Created with sketchtool.</desc>
    <g id="Page-1" stroke="none" stroke-width="1" fill="none" fill-rule="evenodd">
        <g id="Landing" transform="translate(-666.000000, -1846.000000)" fill-rule="nonzero" stroke-width="0.5">
            <g id="Group-11" transform="translate(171.000000, 1846.000000)">
                <g id="Group-9" transform="translate(357.000000, 1.000000)">
                    <g id="Ico-2" transform="translate(139.000000, 0.000000)">
                        <path d="M46.5,40.1 L25,20.6 L28.6,17 C29.3,17.5 30.1,17.8 31,17.8 C32.1,17.8 33.1,17.4 33.9,16.6 C36.1,14.7 36.2,12.1 34.4,10.3 L25.2,1.1 C24.5,0.4 23.5,0 22.4,0 C21.1,0 20,0.6 19,1.7 C17.5,3.1 17.4,5.4 18.6,7 L7,18.7 C6.3,18.2 5.5,17.9 4.6,17.9 C3.3,17.9 2.2,18.5 1.2,19.6 C-0.4,21.2 -0.4,23.8 1.2,25.3 L10.4,34.5 C11.2,35.3 12.2,35.7 13.3,35.7 C14.8,35.6 15.9,35 16.7,34 C18.1,32.6 18.3,30.3 17.1,28.7 L20.7,25.1 L40.2,46.6 C42,48.5 44.6,48.6 46.8,46.8 C48.6,44.5 48.3,42.3 46.5,40.1 Z M20.4,3.1 C21.3,1.8 22.4,1.7 23.9,2.6 L33.1,11.8 C34,12.7 34,13.9 32.6,15.3 C31.8,16.1 30.4,16.1 29.7,15.3 L20.5,6.1 C19.6,5.1 19.6,4.1 20.4,3.1 Z M14.7,33.1 C13.9,33.9 12.5,33.9 11.8,33.1 L2.6,23.9 C2.2,23.5 2,23 2,22.4 C2.1,20.9 3.3,19.9 4.6,19.8 C5.2,19.8 5.7,20 6.1,20.4 L15.3,29.6 C16.2,30.9 16,32.1 14.7,33.1 Z M15.7,27.2 L8.5,20 L20,8.5 L21.5,10 L15.6,15.9 C15.2,16.3 15.2,16.9 15.6,17.3 C16,17.7 16.5,17.7 17,17.3 L22.9,11.4 L27.2,15.7 L15.7,27.2 Z M45.3,45.3 C44.6,46.3 42,46.3 41.6,45.2 L22,23.6 L23.5,22.1 L45.1,41.6 C46.2,42 46.3,44 45.3,45.3 Z" id="Shape" stroke="#000000" fill="#000000"/>
                        <path d="M28.6,46 L1,46 C0.5,46 0,46.4 0,47 C0,47.5 0.4,48 1,48 L28.6,48 C29.1,48 29.6,47.6 29.6,47 C29.6,46.5 29.1,46 28.6,46 Z" id="Path" stroke="#07C0DE" fill="#07C0DE"/>
                        <path d="M26.4,45 C26.9,45 27.4,44.6 27.4,44 C27.4,43.4 27,43 26.4,43 L3.2,43 C2.7,43 2.2,43.4 2.2,44 C2.2,44.6 2.6,45 3.2,45 L26.4,45 Z" id="Path" stroke="#E0BB60" fill="#07C0DE"/>
                        <path d="M15.2,17.7 C14.8,17.3 14.2,17.3 13.8,17.7 L12.7,18.8 C12.3,19.2 12.3,19.8 12.7,20.2 C13.2,20.6 13.7,20.6 14.1,20.2 L15.2,19.1 C15.6,18.7 15.6,18.1 15.2,17.7 Z" id="Path" stroke="#E0BB60" fill="#E0BB60"/>
                    </g>
                </g>
            </g>
        </g>
    </g>
</svg>