<svg width="1339" height="895" viewBox="0 0 1339 895" fill="none" xmlns="http://www.w3.org/2000/svg">
<rect width="1339" height="895" rx="20" fill="#D9D9D9"/>
<path d="M869.786 81.607V58.0358H875.679V81.607H869.786Z" fill="#DB2768"/>
<path d="M854.251 93.0358V85.893C854.251 85.893 848.073 79.4639 848.18 69.4646C848.325 56.0034 859.183 45.0829 872.644 45.1791C875.831 45.2018 880.68 46.6076 880.68 46.6076V69.8217H886.037V43.0362C886.037 43.0362 878.007 39.9536 872.644 40.0005C856.323 40.1433 843.154 53.1434 843.002 69.4646C842.849 85.7858 854.251 93.0358 854.251 93.0358Z" fill="#21204C"/>
<path d="M891.036 46.9642V54.107C891.036 54.107 897.215 60.5361 897.107 70.5354C896.962 83.9966 886.105 94.9171 872.643 94.8209C869.456 94.7982 864.607 93.3924 864.607 93.3924V70.1783H859.25V96.9638C859.25 96.9638 867.28 100.046 872.643 99.9995C888.964 99.8567 902.133 86.8566 902.286 70.5354C902.438 54.2142 891.036 46.9642 891.036 46.9642Z" fill="#DB2768"/>
<path d="M827.56 112.08C827.853 112.4 828.08 112.787 828.24 113.24C828.4 113.693 828.48 114.147 828.48 114.6C827.573 114.6 826.893 114.76 826.44 115.08C826.013 115.4 825.8 115.92 825.8 116.64V135.44C825.8 136.187 826 136.707 826.4 137C826.827 137.293 827.52 137.44 828.48 137.44C828.48 137.92 828.4 138.387 828.24 138.84C828.08 139.293 827.853 139.68 827.56 140H817.64C817.373 139.68 817.16 139.293 817 138.84C816.84 138.387 816.76 137.92 816.76 137.44C817.693 137.44 818.387 137.293 818.84 137C819.293 136.68 819.52 136.16 819.52 135.44V118.88L812.72 136.04C812.373 136.867 811.893 137.44 811.28 137.76C810.667 138.053 809.867 138.2 808.88 138.2L800.96 118.88V135.44C800.96 136.16 801.213 136.68 801.72 137C802.253 137.293 803.053 137.44 804.12 137.44C804.12 137.92 804.04 138.387 803.88 138.84C803.72 139.293 803.507 139.68 803.24 140H794.92C794.653 139.68 794.44 139.293 794.28 138.84C794.12 138.387 794.04 137.92 794.04 137.44C795.027 137.44 795.747 137.293 796.2 137C796.653 136.68 796.88 136.16 796.88 135.44V116.64C796.88 115.92 796.64 115.4 796.16 115.08C795.68 114.76 794.973 114.6 794.04 114.6C794.04 114.147 794.12 113.693 794.28 113.24C794.44 112.787 794.667 112.4 794.96 112.08H801.24C802.493 112.08 803.493 112.267 804.24 112.64C804.987 112.987 805.587 113.693 806.04 114.76L810.28 125.2L811.88 130.16L813.4 125.2L818.44 112.08H827.56ZM833.603 134.36C833.603 132.573 834.19 131.16 835.363 130.12C836.537 129.08 838.27 128.56 840.563 128.56C841.363 128.56 842.177 128.64 843.003 128.8C843.857 128.96 844.55 129.173 845.083 129.44V124.12C845.083 123.053 844.817 122.293 844.283 121.84C843.75 121.36 843.03 121.12 842.123 121.12C841.243 121.12 840.523 121.333 839.963 121.76C840.47 121.92 840.843 122.2 841.083 122.6C841.35 122.973 841.483 123.4 841.483 123.88C841.483 124.733 841.177 125.427 840.563 125.96C839.95 126.493 839.177 126.76 838.243 126.76C837.23 126.76 836.417 126.467 835.803 125.88C835.19 125.293 834.883 124.533 834.883 123.6C834.883 122.667 835.203 121.787 835.843 120.96C836.483 120.133 837.457 119.467 838.763 118.96C840.097 118.453 841.737 118.2 843.683 118.2C846.323 118.2 848.323 118.747 849.683 119.84C851.043 120.907 851.723 122.48 851.723 124.56V135.16C851.723 136.44 852.337 137.213 853.563 137.48V138.76C853.217 139.24 852.643 139.613 851.843 139.88C851.043 140.147 850.23 140.28 849.403 140.28C847.59 140.28 846.31 139.653 845.563 138.4C844.95 138.933 844.203 139.387 843.323 139.76C842.443 140.107 841.443 140.28 840.323 140.28C838.323 140.28 836.697 139.733 835.443 138.64C834.217 137.52 833.603 136.093 833.603 134.36ZM845.083 132.52C844.79 132.333 844.43 132.173 844.003 132.04C843.603 131.907 843.217 131.84 842.843 131.84C842.097 131.84 841.483 132.08 841.003 132.56C840.523 133.013 840.283 133.68 840.283 134.56C840.283 135.28 840.523 135.88 841.003 136.36C841.483 136.813 842.123 137.04 842.923 137.04C843.323 137.04 843.71 136.987 844.083 136.88C844.483 136.747 844.817 136.587 845.083 136.4V132.52ZM868.048 137.28C869.354 137.28 870.381 137.08 871.128 136.68C871.874 136.28 872.434 135.733 872.808 135.04C873.208 134.32 873.554 133.36 873.848 132.16H876.848V133.56C876.848 134.92 876.781 136.133 876.648 137.2C876.514 138.24 876.234 139.173 875.808 140H858.848L857.728 138.48L867.648 123.6L869.568 121.48H866.208C864.954 121.48 864.048 121.827 863.488 122.52C862.928 123.213 862.648 124.36 862.648 125.96H859.448C859.154 125.133 858.968 124.24 858.888 123.28C858.834 122.293 858.794 120.8 858.768 118.8H875.768L876.968 120.44L867.808 134.76L865.408 137.28H868.048ZM881.761 134.36C881.761 132.573 882.348 131.16 883.521 130.12C884.695 129.08 886.428 128.56 888.721 128.56C889.521 128.56 890.335 128.64 891.161 128.8C892.015 128.96 892.708 129.173 893.241 129.44V124.12C893.241 123.053 892.975 122.293 892.441 121.84C891.908 121.36 891.188 121.12 890.281 121.12C889.401 121.12 888.681 121.333 888.121 121.76C888.628 121.92 889.001 122.2 889.241 122.6C889.508 122.973 889.641 123.4 889.641 123.88C889.641 124.733 889.335 125.427 888.721 125.96C888.108 126.493 887.335 126.76 886.401 126.76C885.388 126.76 884.575 126.467 883.961 125.88C883.348 125.293 883.041 124.533 883.041 123.6C883.041 122.667 883.361 121.787 884.001 120.96C884.641 120.133 885.615 119.467 886.921 118.96C888.255 118.453 889.895 118.2 891.841 118.2C894.481 118.2 896.481 118.747 897.841 119.84C899.201 120.907 899.881 122.48 899.881 124.56V135.16C899.881 136.44 900.495 137.213 901.721 137.48V138.76C901.375 139.24 900.801 139.613 900.001 139.88C899.201 140.147 898.388 140.28 897.561 140.28C895.748 140.28 894.468 139.653 893.721 138.4C893.108 138.933 892.361 139.387 891.481 139.76C890.601 140.107 889.601 140.28 888.481 140.28C886.481 140.28 884.855 139.733 883.601 138.64C882.375 137.52 881.761 136.093 881.761 134.36ZM893.241 132.52C892.948 132.333 892.588 132.173 892.161 132.04C891.761 131.907 891.375 131.84 891.001 131.84C890.255 131.84 889.641 132.08 889.161 132.56C888.681 133.013 888.441 133.68 888.441 134.56C888.441 135.28 888.681 135.88 889.161 136.36C889.641 136.813 890.281 137.04 891.081 137.04C891.481 137.04 891.868 136.987 892.241 136.88C892.641 136.747 892.975 136.587 893.241 136.4V132.52ZM927.806 139C927.432 139.48 926.872 139.853 926.126 140.12C925.379 140.387 924.579 140.52 923.726 140.52C922.952 140.52 922.192 140.347 921.446 140C920.699 139.68 920.179 139.227 919.886 138.64C919.352 139.333 918.686 139.813 917.886 140.08C917.112 140.373 916.139 140.52 914.966 140.52C913.472 140.52 912.099 140.147 910.846 139.4C909.592 138.627 908.579 137.493 907.806 136C907.059 134.48 906.686 132.627 906.686 130.44C906.686 127.853 907.166 125.653 908.126 123.84C909.112 122.027 910.406 120.667 912.006 119.76C913.606 118.853 915.366 118.4 917.286 118.4C917.739 118.4 918.552 118.453 919.726 118.56L919.606 116.16V114.16C919.606 113.493 919.419 113 919.046 112.68C918.672 112.36 917.966 112.2 916.926 112.2V110.56C917.859 110.053 919.072 109.6 920.566 109.2C922.059 108.8 923.232 108.6 924.086 108.6C924.699 108.6 925.139 108.747 925.406 109.04C925.699 109.307 925.846 109.773 925.846 110.44V135.56C925.846 136.867 926.486 137.64 927.766 137.88L927.806 139ZM917.726 137.12C918.552 137.12 919.179 136.88 919.606 136.4V122.4C919.046 121.627 918.299 121.24 917.366 121.24C916.192 121.24 915.246 121.853 914.526 123.08C913.832 124.307 913.486 126.293 913.486 129.04C913.486 131.68 913.872 133.693 914.646 135.08C915.446 136.44 916.472 137.12 917.726 137.12ZM953.022 118.76C953.555 119.32 953.822 120.133 953.822 121.2C953.182 121.2 952.675 121.36 952.302 121.68C951.929 122 951.622 122.533 951.382 123.28L946.822 137.48C945.622 141.373 944.342 144.173 942.982 145.88C941.622 147.587 939.915 148.44 937.862 148.44C936.262 148.44 935.035 148.107 934.182 147.44C933.329 146.773 932.902 145.933 932.902 144.92C932.902 144.28 933.049 143.707 933.342 143.2C933.662 142.693 934.062 142.333 934.542 142.12C935.262 142.973 936.329 143.4 937.742 143.4C938.595 143.4 939.435 142.987 940.262 142.16C941.089 141.333 941.769 140.12 942.302 138.52H939.022L932.862 123.56C932.809 123.4 932.675 123.067 932.462 122.56C932.249 122.053 931.982 121.707 931.662 121.52C931.342 121.307 930.929 121.2 930.422 121.2C930.422 120.16 930.702 119.347 931.262 118.76H940.702C941.342 119.453 941.662 120.267 941.662 121.2C940.435 121.2 939.822 121.813 939.822 123.04C939.822 123.52 939.889 123.96 940.022 124.36L943.742 135.2L946.382 123.84C946.462 123.467 946.502 123.147 946.502 122.88C946.502 121.76 945.849 121.2 944.542 121.2C944.542 120.107 944.795 119.293 945.302 118.76H953.022Z" fill="#21204C"/>
<path d="M0 20C0 8.95431 8.95431 0 20 0H391V895H20C8.95431 895 0 886.046 0 875V20Z" fill="#403DA8"/>
<path d="M143.5 113C112.325 65.728 93 7.5 93 7.5V0.5L391 0V276.5C391 276.5 390.879 277.36 380.5 275.5C326.563 265.834 349.071 135.388 295 126.5C262.406 121.142 290.579 198.628 258.5 206.5C186.717 224.114 184.192 174.703 143.5 113Z" fill="#DB2768"/>
<path d="M202 826.5C245.5 835.5 287.5 821 310.5 832.5C346.382 850.441 321.5 894 321.5 894L19 894.5C6 894.5 0 882.5 0 876.5V644.5C0 644.5 110.756 617.266 109 663.5C107.7 697.727 46 743 78 766.5C110 790 138.5 723.5 177 745C215.5 766.5 158.5 817.5 202 826.5Z" fill="#DB2768"/>
<path d="M48.6478 463.76C46.8878 463.76 45.2345 463.573 43.6878 463.2C42.1412 462.827 40.7812 462.253 39.6078 461.48C38.4612 460.707 37.5545 459.707 36.8878 458.48C36.2478 457.253 35.9278 455.8 35.9278 454.12C35.9278 452.387 36.2878 450.853 37.0078 449.52C37.7278 448.213 38.6478 447.067 39.7678 446.08C40.8878 445.067 42.0745 444.16 43.3278 443.36C44.6078 442.533 45.8078 441.747 46.9278 441C48.0478 440.253 48.9678 439.493 49.6878 438.72C50.4078 437.92 50.7678 437.04 50.7678 436.08C50.7678 435.733 50.6745 435.413 50.4878 435.12C50.3278 434.8 50.0478 434.547 49.6478 434.36C49.2745 434.147 48.7412 434.04 48.0478 434.04C47.5945 434.04 47.1278 434.093 46.6478 434.2C46.1678 434.28 45.7012 434.4 45.2478 434.56C44.7945 434.693 44.3678 434.867 43.9678 435.08C44.6612 435.64 45.3412 436.267 46.0078 436.96C46.7012 437.627 47.3278 438.28 47.8878 438.92C48.4745 439.533 48.9278 440.067 49.2478 440.52C49.8612 440.84 50.5278 441.133 51.2478 441.4C51.9678 441.64 52.7278 441.853 53.5278 442.04C54.3545 442.227 55.2078 442.373 56.0878 442.48C56.9678 442.56 57.8745 442.6 58.8078 442.6C59.8212 442.6 60.5412 442.867 60.9678 443.4C61.3945 443.907 61.6078 444.547 61.6078 445.32C61.6078 446.147 61.3278 446.84 60.7678 447.4C60.2078 447.933 59.4212 448.2 58.4078 448.2C56.1945 448.2 54.3012 448.04 52.7278 447.72C51.1812 447.4 49.7812 446.92 48.5278 446.28C47.3012 445.613 46.0345 444.8 44.7278 443.84C44.4078 443.28 43.9412 442.667 43.3278 442C42.7145 441.307 42.0878 440.653 41.4478 440.04C40.8345 439.427 40.3145 438.947 39.8878 438.6C39.8078 438.52 39.6745 438.253 39.4878 437.8C39.3012 437.32 39.1278 436.813 38.9678 436.28C38.8345 435.747 38.7678 435.373 38.7678 435.16C38.7678 434.627 39.0212 434.027 39.5278 433.36C40.0345 432.667 40.7412 432.013 41.6478 431.4C42.5812 430.76 43.6612 430.24 44.8878 429.84C46.1145 429.413 47.4478 429.2 48.8878 429.2C51.5012 429.2 53.3812 429.76 54.5278 430.88C55.7012 431.973 56.2878 433.387 56.2878 435.12C56.2878 436.72 55.9278 438.147 55.2078 439.4C54.5145 440.653 53.6078 441.8 52.4878 442.84C51.3678 443.88 50.1812 444.84 48.9278 445.72C47.7012 446.6 46.5278 447.453 45.4078 448.28C44.2878 449.133 43.3678 449.987 42.6478 450.84C41.9545 451.72 41.6078 452.667 41.6078 453.68C41.6078 454.533 41.8212 455.24 42.2478 455.8C42.7012 456.387 43.2745 456.853 43.9678 457.2C44.6612 457.547 45.4212 457.787 46.2478 457.92C47.1012 458.08 47.9278 458.16 48.7278 458.16C49.5545 458.16 50.4078 458.093 51.2878 457.96C52.1945 457.827 53.1278 457.613 54.0878 457.32C55.0745 457.053 56.0878 456.707 57.1278 456.28L58.8078 461.08C57.7945 461.613 56.7145 462.08 55.5678 462.48C54.4212 462.907 53.2612 463.227 52.0878 463.44C50.9145 463.653 49.7678 463.76 48.6478 463.76ZM61.6203 448.2L62.0203 442.64C64.2337 442.64 66.007 442.627 67.3403 442.6C68.7003 442.573 69.7537 442.52 70.5003 442.44C71.2737 442.333 71.847 442.213 72.2203 442.08C72.5937 441.92 72.9137 441.747 73.1803 441.56C73.5003 441.32 73.767 441 73.9803 440.6C74.2203 440.173 74.407 439.613 74.5403 438.92C74.6737 438.227 74.7403 437.36 74.7403 436.32C74.7403 435.013 74.6203 433.92 74.3803 433.04C74.167 432.133 73.847 431.453 73.4203 431C73.0203 430.547 72.527 430.32 71.9403 430.32C71.5137 430.32 71.1137 430.467 70.7403 430.76C70.367 431.027 70.0603 431.4 69.8203 431.88C69.5803 432.36 69.4603 432.907 69.4603 433.52C69.4603 433.867 69.5537 434.173 69.7403 434.44C69.927 434.707 70.2203 434.907 70.6203 435.04C71.0203 435.173 71.527 435.24 72.1403 435.24C72.727 435.24 73.3403 435.173 73.9803 435.04C74.647 434.88 75.2603 434.667 75.8203 434.4L75.9803 439.16C75.5537 439.453 75.0603 439.72 74.5003 439.96C73.9403 440.2 73.3403 440.387 72.7003 440.52C72.087 440.627 71.4603 440.68 70.8203 440.68C69.407 440.68 68.1803 440.493 67.1403 440.12C66.127 439.72 65.3403 439.08 64.7803 438.2C64.2203 437.32 63.9403 436.12 63.9403 434.6C63.9403 433.427 64.1403 432.267 64.5403 431.12C64.9403 429.947 65.5137 428.893 66.2603 427.96C67.007 427 67.887 426.24 68.9003 425.68C69.9137 425.093 71.0337 424.8 72.2603 424.8C74.0737 424.8 75.567 425.333 76.7403 426.4C77.9403 427.44 78.8203 428.853 79.3803 430.64C79.967 432.4 80.2603 434.36 80.2603 436.52C80.2603 438.413 79.9803 440.067 79.4203 441.48C78.8603 442.867 78.1937 443.96 77.4203 444.76C76.7803 445.427 76.047 445.987 75.2203 446.44C74.3937 446.893 73.3803 447.253 72.1803 447.52C71.007 447.76 69.5537 447.933 67.8203 448.04C66.1137 448.147 64.047 448.2 61.6203 448.2ZM75.6603 421.16C74.887 421.16 74.2203 420.893 73.6603 420.36C73.127 419.8 72.8603 419.147 72.8603 418.4C72.8603 417.627 73.127 416.96 73.6603 416.4C74.2203 415.84 74.887 415.56 75.6603 415.56C76.407 415.56 77.047 415.84 77.5803 416.4C78.1137 416.96 78.3803 417.627 78.3803 418.4C78.3803 419.147 78.1137 419.8 77.5803 420.36C77.047 420.893 76.407 421.16 75.6603 421.16ZM68.7403 421.12C67.967 421.12 67.3003 420.853 66.7403 420.32C66.207 419.76 65.9403 419.107 65.9403 418.36C65.9403 417.587 66.207 416.92 66.7403 416.36C67.3003 415.8 67.967 415.52 68.7403 415.52C69.487 415.52 70.127 415.8 70.6603 416.36C71.1937 416.92 71.4603 417.587 71.4603 418.36C71.4603 419.107 71.1937 419.76 70.6603 420.32C70.127 420.853 69.487 421.12 68.7403 421.12ZM87.2956 457.2L86.1356 451.6C88.029 451.36 89.6823 451.067 91.0956 450.72C92.509 450.4 93.6956 449.947 94.6556 449.36C95.6156 448.773 96.3356 447.973 96.8156 446.96C97.2956 445.92 97.5356 444.587 97.5356 442.96C97.5356 441.387 97.2956 440.133 96.8156 439.2C96.3356 438.267 95.6956 437.8 94.8956 437.8C94.3356 437.8 93.869 438 93.4956 438.4C93.1223 438.773 92.8423 439.227 92.6556 439.76C92.4956 440.267 92.4156 440.72 92.4156 441.12C92.4156 441.36 92.4823 441.613 92.6156 441.88C92.749 442.147 93.0423 442.373 93.4956 442.56C93.949 442.747 94.6556 442.853 95.6156 442.88C96.6023 442.907 97.9356 442.813 99.6156 442.6H106.336C107.349 442.6 108.069 442.867 108.496 443.4C108.949 443.907 109.176 444.547 109.176 445.32C109.176 446.147 108.896 446.84 108.336 447.4C107.776 447.933 106.976 448.2 105.936 448.2H94.9356C93.2556 448.2 91.8156 448 90.6156 447.6C89.4156 447.2 88.4956 446.56 87.8556 445.68C87.2156 444.773 86.8956 443.573 86.8956 442.08C86.8956 440.88 87.0956 439.68 87.4956 438.48C87.9223 437.28 88.509 436.187 89.2556 435.2C90.0023 434.187 90.869 433.387 91.8556 432.8C92.869 432.187 93.9623 431.88 95.1356 431.88C96.7356 431.88 98.1356 432.373 99.3356 433.36C100.536 434.347 101.469 435.653 102.136 437.28C102.829 438.907 103.176 440.68 103.176 442.6C103.176 445.613 102.536 448.173 101.256 450.28C99.9756 452.387 98.149 454.013 95.7756 455.16C93.4023 456.333 90.5756 457.013 87.2956 457.2ZM109.192 448.2L109.592 442.6C110.206 442.6 110.726 442.453 111.152 442.16C111.606 441.84 112.072 441.32 112.552 440.6C113.032 439.853 113.592 438.853 114.232 437.6C115.032 436 115.859 434.747 116.712 433.84C117.592 432.933 118.486 432.293 119.392 431.92C120.326 431.52 121.259 431.32 122.192 431.32C123.366 431.32 124.459 431.573 125.472 432.08C126.486 432.587 127.366 433.28 128.112 434.16C128.859 435.013 129.432 436 129.832 437.12C130.259 438.213 130.472 439.347 130.472 440.52C130.472 441.933 130.166 443.213 129.552 444.36C128.966 445.48 128.139 446.373 127.072 447.04C126.032 447.68 124.832 448 123.472 448C122.326 448 120.992 447.8 119.472 447.4C117.952 447 116.352 446.16 114.672 444.88L116.712 440.04C117.912 440.867 119.032 441.467 120.072 441.84C121.139 442.213 122.019 442.4 122.712 442.4C123.246 442.4 123.686 442.347 124.032 442.24C124.379 442.133 124.632 441.96 124.792 441.72C124.952 441.48 125.032 441.16 125.032 440.76C125.032 440.2 124.899 439.627 124.632 439.04C124.366 438.453 124.006 437.96 123.552 437.56C123.126 437.133 122.619 436.92 122.032 436.92C121.472 436.92 120.992 437.133 120.592 437.56C120.219 437.96 119.846 438.547 119.472 439.32C119.126 440.067 118.699 440.947 118.192 441.96C117.579 443.187 116.979 444.213 116.392 445.04C115.806 445.84 115.179 446.48 114.512 446.96C113.872 447.413 113.112 447.733 112.232 447.92C111.379 448.107 110.366 448.2 109.192 448.2ZM148.703 446.88C148.703 446.267 148.756 445.547 148.863 444.72C148.969 443.893 149.169 442.96 149.463 441.92C149.756 440.853 150.196 439.667 150.783 438.36L155.703 440.08C155.409 440.907 155.156 441.667 154.943 442.36C154.729 443.027 154.569 443.653 154.463 444.24C154.356 444.8 154.303 445.36 154.303 445.92C154.303 446.8 154.489 447.587 154.863 448.28C155.263 449 155.836 449.6 156.583 450.08C157.329 450.587 158.236 450.973 159.303 451.24C160.396 451.507 161.649 451.64 163.063 451.64C164.529 451.64 165.836 451.573 166.983 451.44C168.156 451.307 169.143 451.107 169.943 450.84C170.769 450.573 171.396 450.227 171.823 449.8C172.249 449.4 172.463 448.933 172.463 448.4C172.463 448.16 172.369 447.933 172.183 447.72C172.023 447.507 171.743 447.28 171.343 447.04C170.969 446.8 170.463 446.547 169.823 446.28C169.209 446.013 168.463 445.72 167.583 445.4L168.903 439.76C170.049 440.24 171.129 440.667 172.143 441.04C173.183 441.387 174.169 441.68 175.103 441.92C176.036 442.133 176.916 442.307 177.743 442.44C178.569 442.547 179.343 442.6 180.063 442.6C181.076 442.6 181.796 442.867 182.223 443.4C182.649 443.907 182.863 444.547 182.863 445.32C182.863 446.147 182.583 446.84 182.023 447.4C181.463 447.933 180.676 448.2 179.663 448.2C179.449 448.2 179.236 448.2 179.023 448.2C178.836 448.2 178.636 448.2 178.423 448.2C178.236 448.2 178.036 448.2 177.823 448.2C177.876 448.467 177.903 448.693 177.903 448.88C177.903 449.093 177.903 449.293 177.903 449.48C177.903 450.36 177.596 451.253 176.983 452.16C176.396 453.067 175.476 453.907 174.223 454.68C172.969 455.453 171.369 456.067 169.423 456.52C167.503 457 165.209 457.24 162.543 457.24C159.663 457.24 157.183 456.867 155.103 456.12C153.049 455.4 151.463 454.267 150.343 452.72C149.249 451.2 148.703 449.253 148.703 446.88ZM166.463 466.52C165.689 466.52 165.023 466.24 164.463 465.68C163.929 465.147 163.663 464.507 163.663 463.76C163.663 462.987 163.929 462.32 164.463 461.76C165.023 461.2 165.689 460.92 166.463 460.92C167.209 460.92 167.849 461.2 168.383 461.76C168.916 462.32 169.183 462.987 169.183 463.76C169.183 464.507 168.916 465.147 168.383 465.68C167.849 466.24 167.209 466.52 166.463 466.52ZM159.543 466.52C158.769 466.52 158.103 466.24 157.543 465.68C157.009 465.147 156.743 464.507 156.743 463.76C156.743 462.987 157.009 462.32 157.543 461.76C158.103 461.2 158.769 460.92 159.543 460.92C160.289 460.92 160.929 461.2 161.463 461.76C161.996 462.32 162.263 462.987 162.263 463.76C162.263 464.507 161.996 465.147 161.463 465.68C160.929 466.24 160.289 466.52 159.543 466.52ZM182.855 448.2L183.255 442.64C185.468 442.64 187.241 442.627 188.575 442.6C189.935 442.573 190.988 442.52 191.735 442.44C192.508 442.333 193.081 442.213 193.455 442.08C193.828 441.92 194.148 441.747 194.415 441.56C194.735 441.32 195.001 441 195.215 440.6C195.455 440.173 195.641 439.613 195.775 438.92C195.908 438.227 195.975 437.36 195.975 436.32C195.975 435.013 195.855 433.92 195.615 433.04C195.401 432.133 195.081 431.453 194.655 431C194.255 430.547 193.761 430.32 193.175 430.32C192.748 430.32 192.348 430.467 191.975 430.76C191.601 431.027 191.295 431.4 191.055 431.88C190.815 432.36 190.695 432.907 190.695 433.52C190.695 433.867 190.788 434.173 190.975 434.44C191.161 434.707 191.455 434.907 191.855 435.04C192.255 435.173 192.761 435.24 193.375 435.24C193.961 435.24 194.575 435.173 195.215 435.04C195.881 434.88 196.495 434.667 197.055 434.4L197.215 439.16C196.788 439.453 196.295 439.72 195.735 439.96C195.175 440.2 194.575 440.387 193.935 440.52C193.321 440.627 192.695 440.68 192.055 440.68C190.641 440.68 189.415 440.493 188.375 440.12C187.361 439.72 186.575 439.08 186.015 438.2C185.455 437.32 185.175 436.12 185.175 434.6C185.175 433.427 185.375 432.267 185.775 431.12C186.175 429.947 186.748 428.893 187.495 427.96C188.241 427 189.121 426.24 190.135 425.68C191.148 425.093 192.268 424.8 193.495 424.8C195.308 424.8 196.801 425.333 197.975 426.4C199.175 427.44 200.055 428.853 200.615 430.64C201.201 432.4 201.495 434.36 201.495 436.52C201.495 438.413 201.215 440.067 200.655 441.48C200.095 442.867 199.428 443.96 198.655 444.76C198.015 445.427 197.281 445.987 196.455 446.44C195.628 446.893 194.615 447.253 193.415 447.52C192.241 447.76 190.788 447.933 189.055 448.04C187.348 448.147 185.281 448.2 182.855 448.2ZM193.415 421.08C192.588 421.08 191.881 420.8 191.295 420.24C190.735 419.68 190.455 418.987 190.455 418.16C190.455 417.333 190.735 416.627 191.295 416.04C191.881 415.453 192.588 415.16 193.415 415.16C194.215 415.16 194.895 415.453 195.455 416.04C196.041 416.627 196.335 417.333 196.335 418.16C196.335 418.987 196.041 419.68 195.455 420.24C194.895 420.8 194.215 421.08 193.415 421.08ZM221.519 463.72C220.906 461.533 220.399 459.453 219.999 457.48C219.599 455.533 219.306 453.76 219.119 452.16C218.932 450.587 218.839 449.267 218.839 448.2C218.839 445.827 219.212 443.72 219.959 441.88C220.732 440.013 221.719 438.413 222.919 437.08C224.146 435.72 225.452 434.6 226.839 433.72C228.252 432.84 229.612 432.187 230.919 431.76C232.252 431.333 233.386 431.12 234.319 431.12C235.279 431.12 236.066 431.373 236.679 431.88C237.319 432.387 237.879 433.12 238.359 434.08C238.866 435.013 239.399 436.147 239.959 437.48C240.599 438.92 241.159 440.013 241.639 440.76C242.146 441.48 242.666 441.973 243.199 442.24C243.732 442.48 244.332 442.6 244.999 442.6C246.012 442.6 246.746 442.867 247.199 443.4C247.652 443.907 247.879 444.547 247.879 445.32C247.879 446.147 247.599 446.84 247.039 447.4C246.479 447.933 245.666 448.2 244.599 448.2C243.292 448.2 242.159 447.987 241.199 447.56C240.239 447.107 239.372 446.467 238.599 445.64L239.719 444.4C239.479 445.227 239.146 445.973 238.719 446.64C238.319 447.28 237.772 447.787 237.079 448.16C236.412 448.533 235.572 448.72 234.559 448.72C233.652 448.72 232.746 448.587 231.839 448.32C230.959 448.053 230.092 447.653 229.239 447.12C228.412 446.587 227.612 445.933 226.839 445.16C226.066 444.36 225.332 443.44 224.639 442.4L226.119 442.12C225.532 443.027 225.106 444.04 224.839 445.16C224.572 446.28 224.439 447.387 224.439 448.48C224.439 449.333 224.506 450.32 224.639 451.44C224.799 452.587 224.999 453.787 225.239 455.04C225.479 456.32 225.746 457.573 226.039 458.8C226.359 460.053 226.666 461.2 226.959 462.24L221.519 463.72ZM234.479 443.08C234.986 443.08 235.386 443.013 235.679 442.88C235.999 442.72 236.199 442.493 236.279 442.2C236.386 441.907 236.359 441.56 236.199 441.16C235.932 440.44 235.666 439.813 235.399 439.28C235.159 438.747 234.919 438.293 234.679 437.92C234.466 437.547 234.239 437.267 233.999 437.08C233.786 436.893 233.559 436.8 233.319 436.8C232.972 436.8 232.546 436.92 232.039 437.16C231.532 437.373 231.026 437.64 230.519 437.96C230.012 438.28 229.586 438.6 229.239 438.92C228.892 439.213 228.692 439.44 228.639 439.6L228.159 438.28C228.639 439.213 229.212 440.053 229.879 440.8C230.572 441.52 231.319 442.08 232.119 442.48C232.919 442.88 233.706 443.08 234.479 443.08ZM247.884 448.2L248.284 442.6H253.884C254.818 442.6 255.524 442.547 256.004 442.44C256.511 442.333 256.858 442.173 257.044 441.96C257.231 441.72 257.324 441.44 257.324 441.12C257.324 440.64 257.111 440.08 256.684 439.44C256.284 438.8 255.751 438.133 255.084 437.44C254.444 436.747 253.764 436.053 253.044 435.36C252.324 434.64 251.631 433.973 250.964 433.36C250.324 432.747 249.791 432.213 249.364 431.76C248.964 431.28 248.764 430.933 248.764 430.72C248.764 429.973 248.804 429.387 248.884 428.96C248.964 428.507 249.071 428.147 249.204 427.88C249.364 427.613 249.538 427.387 249.724 427.2C250.178 426.747 250.858 426.24 251.764 425.68C252.671 425.093 253.738 424.48 254.964 423.84C256.218 423.173 257.618 422.48 259.164 421.76C260.711 421.013 262.351 420.24 264.084 419.44L266.364 424.32C264.604 425.093 263.031 425.813 261.644 426.48C260.284 427.12 259.058 427.72 257.964 428.28C256.898 428.813 255.938 429.32 255.084 429.8C254.258 430.28 253.511 430.733 252.844 431.16L253.244 428.2C254.391 429.187 255.431 430.12 256.364 431C257.298 431.88 258.164 432.76 258.964 433.64C259.764 434.52 260.511 435.427 261.204 436.36C261.924 437.293 262.618 438.307 263.284 439.4C263.871 440.333 264.471 441.027 265.084 441.48C265.724 441.933 266.338 442.24 266.924 442.4C267.538 442.533 268.084 442.6 268.564 442.6C269.578 442.6 270.298 442.867 270.724 443.4C271.178 443.907 271.404 444.547 271.404 445.32C271.404 446.147 271.124 446.84 270.564 447.4C270.004 447.933 269.204 448.2 268.164 448.2C267.284 448.2 266.338 448.053 265.324 447.76C264.311 447.44 263.364 446.933 262.484 446.24C261.604 445.547 260.938 444.6 260.484 443.4L262.644 443.56C262.244 444.413 261.764 445.147 261.204 445.76C260.671 446.347 260.031 446.827 259.284 447.2C258.538 447.547 257.684 447.8 256.724 447.96C255.764 448.12 254.684 448.2 253.484 448.2H247.884ZM271.397 448.2L271.797 442.6C272.97 442.6 273.89 442.52 274.557 442.36C275.25 442.2 275.744 441.907 276.037 441.48C276.33 441.027 276.477 440.387 276.477 439.56C276.477 438.813 276.37 437.92 276.157 436.88C275.97 435.84 275.717 434.76 275.397 433.64C275.077 432.52 274.757 431.493 274.437 430.56L279.957 429.04C280.277 429.947 280.597 431 280.917 432.2C281.237 433.4 281.504 434.64 281.717 435.92C281.957 437.173 282.077 438.387 282.077 439.56C282.077 441.027 281.89 442.267 281.517 443.28C281.144 444.267 280.624 445.093 279.957 445.76C279.317 446.4 278.544 446.907 277.637 447.28C276.757 447.627 275.784 447.867 274.717 448C273.65 448.133 272.544 448.2 271.397 448.2ZM276.317 457.4C275.544 457.4 274.877 457.133 274.317 456.6C273.784 456.067 273.517 455.413 273.517 454.64C273.517 453.867 273.784 453.187 274.317 452.6C274.877 452.04 275.544 451.76 276.317 451.76C277.09 451.76 277.744 452.04 278.277 452.6C278.837 453.187 279.117 453.867 279.117 454.64C279.117 455.413 278.837 456.067 278.277 456.6C277.744 457.133 277.09 457.4 276.317 457.4ZM326.481 448.2C324.615 448.2 323.068 448.067 321.841 447.8C320.641 447.507 319.695 447.067 319.001 446.48C318.308 445.867 317.815 445.107 317.521 444.2C317.228 443.293 317.055 442.213 317.001 440.96L316.161 418.72H321.761L322.601 438.28C322.655 439.507 322.788 440.427 323.001 441.04C323.215 441.653 323.615 442.067 324.201 442.28C324.815 442.493 325.708 442.6 326.881 442.6C327.895 442.6 328.615 442.867 329.041 443.4C329.495 443.907 329.721 444.547 329.721 445.32C329.721 446.147 329.441 446.84 328.881 447.4C328.321 447.933 327.521 448.2 326.481 448.2ZM304.961 448.2C304.241 448.2 303.508 448.133 302.761 448C302.041 447.893 301.535 447.813 301.241 447.76L302.001 441.96C303.841 442.2 305.628 442.253 307.361 442.12C309.121 441.96 310.695 441.533 312.081 440.84C313.495 440.12 314.615 439.08 315.441 437.72C316.268 436.333 316.681 434.547 316.681 432.36L318.841 438.64C318.521 440.453 317.975 441.96 317.201 443.16C316.455 444.333 315.561 445.267 314.521 445.96C313.508 446.627 312.428 447.12 311.281 447.44C310.135 447.76 309.015 447.96 307.921 448.04C306.828 448.147 305.841 448.2 304.961 448.2ZM313.641 442.72C313.241 441.947 312.668 441.04 311.921 440C311.175 438.933 310.255 437.76 309.161 436.48C308.095 435.173 306.868 433.8 305.481 432.36C304.095 430.893 302.561 429.387 300.881 427.84L304.361 424.04C306.841 426.387 308.855 428.36 310.401 429.96C311.948 431.56 313.175 432.907 314.081 434C315.015 435.067 315.721 435.987 316.201 436.76C316.708 437.533 317.135 438.28 317.481 439L313.641 442.72ZM345.988 448.32C344.788 448.32 343.548 448.173 342.268 447.88C341.014 447.587 339.801 447.147 338.628 446.56C337.454 445.973 336.401 445.24 335.468 444.36C334.534 443.48 333.788 442.467 333.228 441.32C332.694 440.147 332.428 438.827 332.428 437.36C332.428 436.16 332.681 435.053 333.188 434.04C333.694 433.027 334.441 432.213 335.428 431.6C336.441 430.96 337.668 430.64 339.108 430.64C340.468 430.64 341.641 430.973 342.628 431.64C343.641 432.28 344.428 433.12 344.988 434.16C345.548 435.173 345.828 436.24 345.828 437.36C345.828 439.147 345.388 440.72 344.508 442.08C343.628 443.413 342.414 444.533 340.868 445.44C339.348 446.347 337.628 447.04 335.708 447.52C333.788 447.973 331.788 448.2 329.708 448.2L330.108 442.6C331.628 442.6 332.948 442.56 334.068 442.48C335.214 442.4 336.201 442.227 337.028 441.96C337.854 441.693 338.574 441.293 339.188 440.76C339.801 440.227 340.268 439.64 340.588 439C340.934 438.333 341.108 437.68 341.108 437.04C341.108 436.613 341.041 436.213 340.908 435.84C340.801 435.467 340.614 435.16 340.348 434.92C340.108 434.653 339.788 434.52 339.388 434.52C338.961 434.52 338.601 434.653 338.308 434.92C338.041 435.16 337.828 435.48 337.668 435.88C337.534 436.28 337.468 436.707 337.468 437.16C337.468 438.093 337.708 438.933 338.188 439.68C338.694 440.427 339.361 441.053 340.188 441.56C341.014 442.067 341.921 442.453 342.908 442.72C343.921 442.987 344.948 443.12 345.988 443.12C346.814 443.12 347.401 442.987 347.748 442.72C348.094 442.453 348.268 442.093 348.268 441.64C348.268 441.32 348.188 440.987 348.028 440.64C347.894 440.267 347.588 439.813 347.108 439.28C346.628 438.747 345.894 438.093 344.908 437.32C343.921 436.52 342.601 435.533 340.948 434.36C339.294 433.187 337.214 431.76 334.708 430.08L337.788 425.72C340.614 427.72 342.974 429.467 344.868 430.96C346.788 432.453 348.334 433.76 349.508 434.88C350.681 436 351.574 436.987 352.188 437.84C352.828 438.667 353.254 439.427 353.468 440.12C353.681 440.813 353.788 441.507 353.788 442.2C353.788 443.48 353.481 444.573 352.868 445.48C352.254 446.387 351.361 447.093 350.188 447.6C349.041 448.08 347.641 448.32 345.988 448.32ZM361.653 448L360.893 421.52H366.493L367.253 448H361.653ZM359.453 418.96L358.773 416.16C359.706 416 360.399 415.867 360.853 415.76C361.333 415.653 361.839 415.533 362.373 415.4L361.973 416.4C361.279 416.16 360.613 415.693 359.973 415C359.359 414.28 359.053 413.467 359.053 412.56C359.053 411.6 359.266 410.827 359.693 410.24C360.119 409.653 360.666 409.227 361.333 408.96C361.999 408.693 362.693 408.56 363.413 408.56C363.813 408.56 364.186 408.587 364.533 408.64C364.906 408.693 365.239 408.773 365.533 408.88L365.213 411.76C364.946 411.707 364.679 411.653 364.413 411.6C364.146 411.547 363.853 411.52 363.533 411.52C363.186 411.52 362.866 411.64 362.573 411.88C362.306 412.093 362.173 412.36 362.173 412.68C362.173 413.133 362.333 413.533 362.653 413.88C362.973 414.227 363.346 414.507 363.773 414.72C364.226 414.907 364.599 415.013 364.893 415.04L362.693 415.28C363.413 415.093 364.093 414.907 364.733 414.72C365.373 414.507 365.973 414.293 366.533 414.08L367.333 416.76C366.666 417 365.879 417.267 364.973 417.56C364.093 417.827 363.173 418.08 362.213 418.32C361.279 418.56 360.359 418.773 359.453 418.96ZM138.782 508.88C138.782 508.267 138.836 507.547 138.942 506.72C139.049 505.893 139.249 504.96 139.542 503.92C139.836 502.853 140.276 501.667 140.862 500.36L145.782 502.08C145.489 502.907 145.236 503.667 145.022 504.36C144.809 505.027 144.649 505.653 144.542 506.24C144.436 506.8 144.382 507.36 144.382 507.92C144.382 508.72 144.556 509.467 144.902 510.16C145.249 510.853 145.769 511.453 146.462 511.96C147.156 512.493 148.009 512.907 149.022 513.2C150.062 513.493 151.262 513.64 152.622 513.64C154.169 513.64 155.529 513.493 156.702 513.2C157.902 512.933 158.902 512.573 159.702 512.12C160.529 511.693 161.156 511.24 161.582 510.76C162.009 510.28 162.222 509.84 162.222 509.44C162.222 509.12 161.996 508.84 161.542 508.6C161.116 508.36 160.542 508.12 159.822 507.88C159.129 507.613 158.382 507.32 157.582 507C156.809 506.68 156.062 506.28 155.342 505.8C154.649 505.32 154.076 504.733 153.622 504.04C153.196 503.347 152.982 502.507 152.982 501.52C152.982 500.507 153.249 499.4 153.782 498.2C154.316 496.973 155.076 495.813 156.062 494.72C157.049 493.6 158.222 492.693 159.582 492C160.969 491.28 162.489 490.92 164.142 490.92C165.316 490.92 166.382 491.107 167.342 491.48C168.329 491.853 169.156 492.28 169.822 492.76L167.742 497.44C167.182 497.067 166.582 496.787 165.942 496.6C165.302 496.387 164.689 496.28 164.102 496.28C163.356 496.28 162.636 496.427 161.942 496.72C161.276 497.013 160.676 497.4 160.142 497.88C159.636 498.333 159.236 498.827 158.942 499.36C158.649 499.893 158.502 500.4 158.502 500.88C158.502 501.36 158.729 501.787 159.182 502.16C159.662 502.507 160.276 502.84 161.022 503.16C161.769 503.453 162.556 503.76 163.382 504.08C164.209 504.4 164.996 504.76 165.742 505.16C166.489 505.56 167.089 506.04 167.542 506.6C168.022 507.16 168.262 507.84 168.262 508.64C168.262 509.787 167.902 510.973 167.182 512.2C166.489 513.453 165.449 514.613 164.062 515.68C162.676 516.747 160.969 517.6 158.942 518.24C156.942 518.907 154.622 519.24 151.982 519.24C150.062 519.24 148.302 519.013 146.702 518.56C145.102 518.133 143.702 517.48 142.502 516.6C141.329 515.747 140.409 514.667 139.742 513.36C139.102 512.08 138.782 510.587 138.782 508.88ZM155.622 528.52C154.849 528.52 154.182 528.24 153.622 527.68C153.089 527.147 152.822 526.507 152.822 525.76C152.822 524.987 153.089 524.32 153.622 523.76C154.182 523.2 154.849 522.92 155.622 522.92C156.369 522.92 157.009 523.2 157.542 523.76C158.076 524.32 158.342 524.987 158.342 525.76C158.342 526.507 158.076 527.147 157.542 527.68C157.009 528.24 156.369 528.52 155.622 528.52ZM148.702 528.52C147.929 528.52 147.262 528.24 146.702 527.68C146.169 527.147 145.902 526.507 145.902 525.76C145.902 524.987 146.169 524.32 146.702 523.76C147.262 523.2 147.929 522.92 148.702 522.92C149.449 522.92 150.089 523.2 150.622 523.76C151.156 524.32 151.422 524.987 151.422 525.76C151.422 526.507 151.156 527.147 150.622 527.68C150.089 528.24 149.449 528.52 148.702 528.52ZM175.194 508.4L177.154 503.32C178.14 503.747 179.087 504.067 179.994 504.28C180.9 504.493 181.807 504.6 182.714 504.6C183.647 504.6 184.42 504.52 185.034 504.36C185.674 504.173 186.154 503.907 186.474 503.56C186.794 503.213 186.954 502.8 186.954 502.32C186.954 501.867 186.807 501.24 186.514 500.44C186.247 499.64 185.754 498.6 185.034 497.32C184.314 496.013 183.26 494.4 181.874 492.48L186.634 489.32C187.914 491.133 189.02 492.907 189.954 494.64C190.887 496.347 191.607 497.947 192.114 499.44C192.647 500.907 192.914 502.2 192.914 503.32C192.914 504.707 192.54 505.92 191.794 506.96C191.074 507.973 189.994 508.773 188.554 509.36C187.14 509.947 185.394 510.24 183.314 510.24C182.54 510.24 181.674 510.173 180.714 510.04C179.754 509.907 178.78 509.707 177.794 509.44C176.834 509.173 175.967 508.827 175.194 508.4ZM200.858 510L200.018 480.72H205.618L206.458 510H200.858ZM211.42 519.24L209.38 514.28C210.793 513.8 212.086 513.24 213.26 512.6C214.46 511.96 215.5 511.253 216.38 510.48C217.26 509.707 217.94 508.867 218.42 507.96C218.9 507.027 219.14 506.027 219.14 504.96C219.14 503.84 218.886 502.613 218.38 501.28C217.873 499.947 217.26 498.587 216.54 497.2L221.78 494.68C222.26 495.507 222.673 496.4 223.02 497.36C223.393 498.293 223.7 499.133 223.94 499.88C224.18 500.627 224.34 501.133 224.42 501.4C224.793 502.68 225.3 503.533 225.94 503.96C226.606 504.387 227.673 504.6 229.14 504.6C230.153 504.6 230.873 504.867 231.3 505.4C231.753 505.907 231.98 506.547 231.98 507.32C231.98 508.147 231.7 508.84 231.14 509.4C230.58 509.933 229.78 510.2 228.74 510.2C227.646 510.2 226.686 510.04 225.86 509.72C225.033 509.4 224.366 508.933 223.86 508.32C223.38 507.707 223.073 506.987 222.94 506.16L224.42 507C224.26 508.413 223.793 509.747 223.02 511C222.273 512.28 221.3 513.453 220.1 514.52C218.9 515.587 217.553 516.52 216.06 517.32C214.566 518.12 213.02 518.76 211.42 519.24ZM219.58 490.6C218.753 490.6 218.046 490.32 217.46 489.76C216.9 489.2 216.62 488.507 216.62 487.68C216.62 486.853 216.9 486.147 217.46 485.56C218.046 484.973 218.753 484.68 219.58 484.68C220.38 484.68 221.06 484.973 221.62 485.56C222.206 486.147 222.5 486.853 222.5 487.68C222.5 488.507 222.206 489.2 221.62 489.76C221.06 490.32 220.38 490.6 219.58 490.6ZM231.988 510.2L232.388 504.6C233.001 504.6 233.521 504.453 233.948 504.16C234.401 503.84 234.868 503.32 235.348 502.6C235.828 501.853 236.388 500.853 237.028 499.6C237.828 498 238.654 496.747 239.508 495.84C240.388 494.933 241.281 494.293 242.188 493.92C243.121 493.52 244.054 493.32 244.988 493.32C246.161 493.32 247.254 493.573 248.268 494.08C249.281 494.587 250.161 495.28 250.908 496.16C251.654 497.013 252.228 498 252.628 499.12C253.054 500.213 253.268 501.347 253.268 502.52C253.268 503.933 252.961 505.213 252.348 506.36C251.761 507.48 250.934 508.373 249.868 509.04C248.828 509.68 247.628 510 246.268 510C245.121 510 243.788 509.8 242.268 509.4C240.748 509 239.148 508.16 237.468 506.88L239.508 502.04C240.708 502.867 241.828 503.467 242.868 503.84C243.934 504.213 244.814 504.4 245.508 504.4C246.041 504.4 246.481 504.347 246.828 504.24C247.174 504.133 247.428 503.96 247.588 503.72C247.748 503.48 247.828 503.16 247.828 502.76C247.828 502.2 247.694 501.627 247.428 501.04C247.161 500.453 246.801 499.96 246.348 499.56C245.921 499.133 245.414 498.92 244.828 498.92C244.268 498.92 243.788 499.133 243.388 499.56C243.014 499.96 242.641 500.547 242.268 501.32C241.921 502.067 241.494 502.947 240.988 503.96C240.374 505.187 239.774 506.213 239.188 507.04C238.601 507.84 237.974 508.48 237.308 508.96C236.668 509.413 235.908 509.733 235.028 509.92C234.174 510.107 233.161 510.2 231.988 510.2Z" fill="white"/>
<path d="M739.1 185.275C740.15 185.275 740.955 185.182 741.515 184.995C742.075 184.808 742.46 184.563 742.67 184.26C742.88 183.957 742.985 183.63 742.985 183.28C742.985 182.72 742.821 182.067 742.495 181.32C742.191 180.573 741.806 179.792 741.34 178.975C740.873 178.158 740.383 177.377 739.87 176.63C739.38 175.883 738.936 175.23 738.54 174.67L742.705 171.905C743.708 173.258 744.571 174.6 745.295 175.93C746.018 177.237 746.601 178.45 747.045 179.57C747.511 180.69 747.838 181.647 748.025 182.44C748.211 183.187 748.491 183.77 748.865 184.19C749.261 184.587 749.716 184.867 750.23 185.03C750.743 185.193 751.256 185.275 751.77 185.275C752.656 185.275 753.286 185.508 753.66 185.975C754.056 186.418 754.255 186.978 754.255 187.655C754.255 188.378 754.01 188.985 753.52 189.475C753.053 189.942 752.353 190.175 751.42 190.175C750.393 190.175 749.495 190.035 748.725 189.755C747.955 189.475 747.301 189.032 746.765 188.425C746.228 187.818 745.773 187.048 745.4 186.115L747.535 186.57C747.348 187.223 746.916 187.83 746.24 188.39C745.586 188.927 744.711 189.37 743.615 189.72C742.541 190.047 741.27 190.21 739.8 190.21C739.1 190.21 738.318 190.152 737.455 190.035C736.615 189.918 735.775 189.743 734.935 189.51C734.118 189.277 733.371 188.973 732.695 188.6L734.41 184.155C735.273 184.528 736.101 184.808 736.895 184.995C737.711 185.182 738.446 185.275 739.1 185.275ZM751.465 190.175L751.815 185.275C753.215 185.275 754.288 185.205 755.035 185.065C755.782 184.925 756.295 184.668 756.575 184.295C756.878 183.898 757.03 183.338 757.03 182.615C757.03 181.962 756.937 181.18 756.75 180.27C756.587 179.36 756.365 178.415 756.085 177.435C755.828 176.455 755.548 175.557 755.245 174.74L760.075 173.41C760.378 174.203 760.67 175.125 760.95 176.175C761.23 177.225 761.463 178.31 761.65 179.43C761.837 180.527 761.93 181.588 761.93 182.615C761.93 184.202 761.673 185.497 761.16 186.5C760.647 187.48 759.923 188.238 758.99 188.775C758.08 189.312 756.983 189.685 755.7 189.895C754.417 190.082 753.005 190.175 751.465 190.175ZM760.11 198.295C759.433 198.295 758.85 198.05 758.36 197.56C757.893 197.093 757.66 196.533 757.66 195.88C757.66 195.203 757.893 194.62 758.36 194.13C758.85 193.64 759.433 193.395 760.11 193.395C760.763 193.395 761.323 193.64 761.79 194.13C762.257 194.62 762.49 195.203 762.49 195.88C762.49 196.533 762.257 197.093 761.79 197.56C761.323 198.05 760.763 198.295 760.11 198.295ZM754.055 198.295C753.378 198.295 752.795 198.05 752.305 197.56C751.838 197.093 751.605 196.533 751.605 195.88C751.605 195.203 751.838 194.62 752.305 194.13C752.795 193.64 753.378 193.395 754.055 193.395C754.708 193.395 755.268 193.64 755.735 194.13C756.202 194.62 756.435 195.203 756.435 195.88C756.435 196.533 756.202 197.093 755.735 197.56C755.268 198.05 754.708 198.295 754.055 198.295ZM771.673 185.275C772.723 185.275 773.528 185.182 774.088 184.995C774.648 184.808 775.033 184.563 775.243 184.26C775.453 183.957 775.558 183.63 775.558 183.28C775.558 182.72 775.395 182.067 775.068 181.32C774.765 180.573 774.38 179.792 773.913 178.975C773.446 178.158 772.956 177.377 772.443 176.63C771.953 175.883 771.51 175.23 771.113 174.67L775.278 171.905C776.281 173.258 777.145 174.6 777.868 175.93C778.591 177.237 779.175 178.45 779.618 179.57C780.085 180.69 780.411 181.647 780.598 182.44C780.785 183.187 781.065 183.77 781.438 184.19C781.835 184.587 782.29 184.867 782.803 185.03C783.316 185.193 783.83 185.275 784.343 185.275C785.23 185.275 785.86 185.508 786.233 185.975C786.63 186.418 786.828 186.978 786.828 187.655C786.828 188.378 786.583 188.985 786.093 189.475C785.626 189.942 784.926 190.175 783.993 190.175C782.966 190.175 782.068 190.035 781.298 189.755C780.528 189.475 779.875 189.032 779.338 188.425C778.801 187.818 778.346 187.048 777.973 186.115L780.108 186.57C779.921 187.223 779.49 187.83 778.813 188.39C778.16 188.927 777.285 189.37 776.188 189.72C775.115 190.047 773.843 190.21 772.373 190.21C771.673 190.21 770.891 190.152 770.028 190.035C769.188 189.918 768.348 189.743 767.508 189.51C766.691 189.277 765.945 188.973 765.268 188.6L766.983 184.155C767.846 184.528 768.675 184.808 769.468 184.995C770.285 185.182 771.02 185.275 771.673 185.275ZM784.038 190.175L784.388 185.275C785.648 185.275 786.896 185.205 788.133 185.065C789.37 184.925 790.571 184.715 791.738 184.435C792.905 184.155 794.013 183.793 795.063 183.35C796.136 182.907 797.14 182.37 798.073 181.74C797.373 181.32 796.615 180.958 795.798 180.655C794.981 180.352 794.106 180.13 793.173 179.99C792.263 179.827 791.295 179.745 790.268 179.745C789.895 179.745 789.498 179.757 789.078 179.78C788.681 179.803 788.273 179.85 787.853 179.92C787.433 179.967 787.013 180.037 786.593 180.13L785.893 175.335C786.57 175.148 787.281 175.02 788.028 174.95C788.798 174.857 789.475 174.81 790.058 174.81C791.318 174.81 792.473 174.95 793.523 175.23C794.596 175.51 795.576 175.86 796.463 176.28C797.373 176.7 798.213 177.12 798.983 177.54C799.776 177.96 800.523 178.31 801.223 178.59C801.946 178.87 802.646 179.01 803.323 179.01H804.618L805.178 183.665C804.175 183.712 803.23 183.91 802.343 184.26C801.48 184.587 800.616 185.007 799.753 185.52C798.913 186.01 798.003 186.523 797.023 187.06C796.066 187.597 794.981 188.098 793.768 188.565C792.555 189.032 791.155 189.417 789.568 189.72C787.981 190.023 786.138 190.175 784.038 190.175ZM794.538 198.225C793.861 198.225 793.278 197.992 792.788 197.525C792.321 197.058 792.088 196.487 792.088 195.81C792.088 195.133 792.321 194.538 792.788 194.025C793.278 193.535 793.861 193.29 794.538 193.29C795.215 193.29 795.786 193.535 796.253 194.025C796.743 194.538 796.988 195.133 796.988 195.81C796.988 196.487 796.743 197.058 796.253 197.525C795.786 197.992 795.215 198.225 794.538 198.225ZM828.615 190.735L829.525 185.835C831.789 185.835 833.76 185.777 835.44 185.66C837.12 185.52 838.509 185.322 839.605 185.065C840.725 184.785 841.554 184.423 842.09 183.98C842.65 183.537 842.93 183 842.93 182.37C842.93 181.53 842.79 180.527 842.51 179.36C842.23 178.17 841.869 176.968 841.425 175.755L846.01 174.425C846.314 175.218 846.605 176.093 846.885 177.05C847.165 177.983 847.387 178.928 847.55 179.885C847.737 180.818 847.83 181.693 847.83 182.51C847.83 183.957 847.515 185.205 846.885 186.255C846.255 187.282 845.205 188.133 843.735 188.81C842.289 189.463 840.329 189.942 837.855 190.245C835.382 190.572 832.302 190.735 828.615 190.735ZM828.58 190.735C826.06 190.735 823.925 190.537 822.175 190.14C820.449 189.767 819.037 189.23 817.94 188.53C816.867 187.807 816.085 186.967 815.595 186.01C815.105 185.053 814.86 184.003 814.86 182.86C814.86 182.113 814.919 181.367 815.035 180.62C815.175 179.85 815.339 179.103 815.525 178.38C815.735 177.657 815.922 177.003 816.085 176.42L820.46 177.435C820.367 177.855 820.262 178.31 820.145 178.8C820.029 179.29 819.935 179.768 819.865 180.235C819.795 180.678 819.76 181.087 819.76 181.46C819.76 182.323 820.064 183.093 820.67 183.77C821.3 184.423 822.327 184.937 823.75 185.31C825.174 185.66 827.087 185.835 829.49 185.835L830.19 189.615L828.58 190.735ZM831.275 198.925C830.599 198.925 830.015 198.692 829.525 198.225C829.059 197.758 828.825 197.187 828.825 196.51C828.825 195.833 829.059 195.238 829.525 194.725C830.015 194.235 830.599 193.99 831.275 193.99C831.952 193.99 832.524 194.235 832.99 194.725C833.48 195.238 833.725 195.833 833.725 196.51C833.725 197.187 833.48 197.758 832.99 198.225C832.524 198.692 831.952 198.925 831.275 198.925ZM860.69 190.175C858.52 190.175 856.84 189.953 855.65 189.51C854.483 189.067 853.666 188.378 853.2 187.445C852.733 186.488 852.465 185.287 852.395 183.84L851.66 164.38H856.56L857.295 181.495C857.341 182.568 857.458 183.373 857.645 183.91C857.831 184.447 858.181 184.808 858.695 184.995C859.231 185.182 860.013 185.275 861.04 185.275C861.926 185.275 862.556 185.508 862.93 185.975C863.326 186.418 863.525 186.978 863.525 187.655C863.525 188.378 863.28 188.985 862.79 189.475C862.3 189.942 861.6 190.175 860.69 190.175ZM860.737 190.175L861.087 185.275C861.857 185.275 862.487 185.217 862.977 185.1C863.467 184.96 863.864 184.668 864.167 184.225C864.494 183.758 864.774 183.07 865.007 182.16C865.264 181.227 865.544 179.967 865.847 178.38L870.397 179.22C870.304 179.733 870.176 180.375 870.012 181.145C869.872 181.915 869.802 182.58 869.802 183.14C869.802 183.583 869.884 183.968 870.047 184.295C870.234 184.598 870.537 184.843 870.957 185.03C871.401 185.193 872.007 185.275 872.777 185.275C873.384 185.275 873.897 185.217 874.317 185.1C874.761 184.96 875.134 184.668 875.437 184.225C875.764 183.758 876.044 183.047 876.277 182.09C876.534 181.11 876.779 179.792 877.012 178.135L881.632 178.87C881.539 179.407 881.446 179.978 881.352 180.585C881.259 181.192 881.177 181.752 881.107 182.265C881.037 182.778 881.002 183.198 881.002 183.525C881.002 183.828 881.084 184.12 881.247 184.4C881.434 184.657 881.761 184.867 882.227 185.03C882.717 185.193 883.394 185.275 884.257 185.275C885.307 185.275 886.077 185.053 886.567 184.61C887.081 184.143 887.337 183.443 887.337 182.51C887.337 181.973 887.326 181.402 887.302 180.795C887.279 180.165 887.232 179.465 887.162 178.695C887.116 177.902 887.022 177.003 886.882 176L891.397 175.65C891.561 177.657 891.747 179.29 891.957 180.55C892.167 181.81 892.447 182.79 892.797 183.49C893.171 184.167 893.661 184.633 894.267 184.89C894.897 185.147 895.714 185.275 896.717 185.275C897.604 185.275 898.234 185.508 898.607 185.975C899.004 186.418 899.202 186.978 899.202 187.655C899.202 188.378 898.957 188.985 898.467 189.475C898.001 189.942 897.301 190.175 896.367 190.175C895.737 190.175 895.084 190.117 894.407 190C893.731 189.907 893.077 189.708 892.447 189.405C891.817 189.078 891.257 188.612 890.767 188.005C890.277 187.398 889.892 186.593 889.612 185.59L890.242 185.8C889.916 186.967 889.472 187.865 888.912 188.495C888.352 189.125 887.664 189.568 886.847 189.825C886.031 190.058 885.051 190.175 883.907 190.175C882.857 190.175 881.924 190.035 881.107 189.755C880.291 189.475 879.637 189.02 879.147 188.39C878.681 187.737 878.436 186.862 878.412 185.765H879.602C879.136 187.072 878.599 188.04 877.992 188.67C877.386 189.3 876.651 189.708 875.787 189.895C874.924 190.082 873.839 190.175 872.532 190.175C871.739 190.175 870.957 190.093 870.187 189.93C869.417 189.743 868.729 189.335 868.122 188.705C867.516 188.052 867.072 187.025 866.792 185.625L868.682 185.555C868.192 186.932 867.551 187.947 866.757 188.6C865.987 189.253 865.101 189.685 864.097 189.895C863.094 190.082 861.974 190.175 860.737 190.175ZM896.387 190.175L896.737 185.275C897.997 185.275 899.245 185.205 900.482 185.065C901.718 184.925 902.92 184.715 904.087 184.435C905.253 184.155 906.362 183.793 907.412 183.35C908.485 182.907 909.488 182.37 910.422 181.74C909.722 181.32 908.963 180.958 908.147 180.655C907.33 180.352 906.455 180.13 905.522 179.99C904.612 179.827 903.643 179.745 902.617 179.745C902.243 179.745 901.847 179.757 901.427 179.78C901.03 179.803 900.622 179.85 900.202 179.92C899.782 179.967 899.362 180.037 898.942 180.13L898.242 175.335C898.918 175.148 899.63 175.02 900.377 174.95C901.147 174.857 901.823 174.81 902.407 174.81C903.667 174.81 904.822 174.95 905.872 175.23C906.945 175.51 907.925 175.86 908.812 176.28C909.722 176.7 910.562 177.12 911.332 177.54C912.125 177.96 912.872 178.31 913.572 178.59C914.295 178.87 914.995 179.01 915.672 179.01H916.967L917.527 183.665C916.523 183.712 915.578 183.91 914.692 184.26C913.828 184.587 912.965 185.007 912.102 185.52C911.262 186.01 910.352 186.523 909.372 187.06C908.415 187.597 907.33 188.098 906.117 188.565C904.903 189.032 903.503 189.417 901.917 189.72C900.33 190.023 898.487 190.175 896.387 190.175ZM931.129 186.57C930.756 186.383 930.382 186.127 930.009 185.8C929.636 185.45 929.297 185.042 928.994 184.575C928.691 184.108 928.446 183.607 928.259 183.07C928.096 182.51 928.014 181.938 928.014 181.355C928.014 180.072 928.317 178.94 928.924 177.96C929.531 176.957 930.347 176.175 931.374 175.615C932.401 175.032 933.532 174.74 934.769 174.74C935.446 174.74 936.064 174.787 936.624 174.88C937.207 174.95 937.791 175.067 938.374 175.23L937.604 179.78C937.184 179.663 936.776 179.582 936.379 179.535C936.006 179.465 935.667 179.43 935.364 179.43C934.874 179.43 934.442 179.535 934.069 179.745C933.696 179.932 933.404 180.212 933.194 180.585C933.007 180.935 932.914 181.343 932.914 181.81C932.914 182.347 933.031 182.825 933.264 183.245C933.521 183.665 933.894 184.027 934.384 184.33C934.897 184.61 935.527 184.832 936.274 184.995L931.129 186.57ZM927.979 191.995L926.404 187.41C927.617 187.083 928.936 186.71 930.359 186.29C931.782 185.847 933.276 185.345 934.839 184.785C936.426 184.225 938.036 183.618 939.669 182.965L941.489 187.445C940.556 187.818 939.517 188.227 938.374 188.67C937.231 189.09 936.041 189.51 934.804 189.93C933.567 190.35 932.366 190.735 931.199 191.085C930.032 191.435 928.959 191.738 927.979 191.995ZM953.624 190.175C951.454 190.175 949.774 189.953 948.584 189.51C947.418 189.067 946.601 188.378 946.134 187.445C945.668 186.488 945.399 185.287 945.329 183.84L944.594 164.38H949.494L950.229 181.495C950.276 182.568 950.393 183.373 950.579 183.91C950.766 184.447 951.116 184.808 951.629 184.995C952.166 185.182 952.948 185.275 953.974 185.275C954.861 185.275 955.491 185.508 955.864 185.975C956.261 186.418 956.459 186.978 956.459 187.655C956.459 188.378 956.214 188.985 955.724 189.475C955.234 189.942 954.534 190.175 953.624 190.175ZM953.672 190.175L954.022 185.275C954.792 185.275 955.422 185.217 955.912 185.1C956.402 184.96 956.799 184.668 957.102 184.225C957.429 183.758 957.709 183.07 957.942 182.16C958.199 181.227 958.479 179.967 958.782 178.38L963.332 179.22C963.239 179.733 963.11 180.375 962.947 181.145C962.807 181.915 962.737 182.58 962.737 183.14C962.737 183.583 962.819 183.968 962.982 184.295C963.169 184.598 963.472 184.843 963.892 185.03C964.335 185.193 964.942 185.275 965.712 185.275C966.319 185.275 966.832 185.217 967.252 185.1C967.695 184.96 968.069 184.668 968.372 184.225C968.699 183.758 968.979 183.047 969.212 182.09C969.469 181.11 969.714 179.792 969.947 178.135L974.567 178.87C974.474 179.407 974.38 179.978 974.287 180.585C974.194 181.192 974.112 181.752 974.042 182.265C973.972 182.778 973.937 183.198 973.937 183.525C973.937 183.828 974.019 184.12 974.182 184.4C974.369 184.657 974.695 184.867 975.162 185.03C975.652 185.193 976.329 185.275 977.192 185.275C978.242 185.275 979.012 185.053 979.502 184.61C980.015 184.143 980.272 183.443 980.272 182.51C980.272 181.973 980.26 181.402 980.237 180.795C980.214 180.165 980.167 179.465 980.097 178.695C980.05 177.902 979.957 177.003 979.817 176L984.332 175.65C984.495 177.657 984.682 179.29 984.892 180.55C985.102 181.81 985.382 182.79 985.732 183.49C986.105 184.167 986.595 184.633 987.202 184.89C987.832 185.147 988.649 185.275 989.652 185.275C990.539 185.275 991.169 185.508 991.542 185.975C991.939 186.418 992.137 186.978 992.137 187.655C992.137 188.378 991.892 188.985 991.402 189.475C990.935 189.942 990.235 190.175 989.302 190.175C988.672 190.175 988.019 190.117 987.342 190C986.665 189.907 986.012 189.708 985.382 189.405C984.752 189.078 984.192 188.612 983.702 188.005C983.212 187.398 982.827 186.593 982.547 185.59L983.177 185.8C982.85 186.967 982.407 187.865 981.847 188.495C981.287 189.125 980.599 189.568 979.782 189.825C978.965 190.058 977.985 190.175 976.842 190.175C975.792 190.175 974.859 190.035 974.042 189.755C973.225 189.475 972.572 189.02 972.082 188.39C971.615 187.737 971.37 186.862 971.347 185.765H972.537C972.07 187.072 971.534 188.04 970.927 188.67C970.32 189.3 969.585 189.708 968.722 189.895C967.859 190.082 966.774 190.175 965.467 190.175C964.674 190.175 963.892 190.093 963.122 189.93C962.352 189.743 961.664 189.335 961.057 188.705C960.45 188.052 960.007 187.025 959.727 185.625L961.617 185.555C961.127 186.932 960.485 187.947 959.692 188.6C958.922 189.253 958.035 189.685 957.032 189.895C956.029 190.082 954.909 190.175 953.672 190.175ZM971.627 168.51C971.044 168.51 970.53 168.288 970.087 167.845C969.667 167.402 969.457 166.877 969.457 166.27C969.457 165.663 969.667 165.15 970.087 164.73C970.53 164.31 971.044 164.1 971.627 164.1C972.234 164.1 972.747 164.31 973.167 164.73C973.587 165.15 973.797 165.663 973.797 166.27C973.797 166.877 973.587 167.402 973.167 167.845C972.747 168.288 972.234 168.51 971.627 168.51ZM968.827 173.13C968.244 173.13 967.73 172.908 967.287 172.465C966.867 172.022 966.657 171.497 966.657 170.89C966.657 170.283 966.867 169.77 967.287 169.35C967.73 168.93 968.244 168.72 968.827 168.72C969.434 168.72 969.947 168.93 970.367 169.35C970.787 169.77 970.997 170.283 970.997 170.89C970.997 171.497 970.787 172.022 970.367 172.465C969.947 172.908 969.434 173.13 968.827 173.13ZM974.252 173.13C973.669 173.13 973.155 172.908 972.712 172.465C972.292 172.022 972.082 171.497 972.082 170.89C972.082 170.283 972.292 169.77 972.712 169.35C973.155 168.93 973.669 168.72 974.252 168.72C974.859 168.72 975.372 168.93 975.792 169.35C976.212 169.77 976.422 170.283 976.422 170.89C976.422 171.497 976.212 172.022 975.792 172.465C975.372 172.908 974.859 173.13 974.252 173.13ZM989.321 190.175L989.671 185.275C990.698 185.275 991.503 185.205 992.086 185.065C992.693 184.925 993.125 184.668 993.381 184.295C993.638 183.898 993.766 183.338 993.766 182.615C993.766 181.962 993.673 181.18 993.486 180.27C993.323 179.36 993.101 178.415 992.821 177.435C992.541 176.455 992.261 175.557 991.981 174.74L996.811 173.41C997.091 174.203 997.371 175.125 997.651 176.175C997.931 177.225 998.165 178.31 998.351 179.43C998.561 180.527 998.666 181.588 998.666 182.615C998.666 183.898 998.503 184.983 998.176 185.87C997.85 186.733 997.395 187.457 996.811 188.04C996.251 188.6 995.575 189.043 994.781 189.37C994.011 189.673 993.16 189.883 992.226 190C991.293 190.117 990.325 190.175 989.321 190.175ZM994.361 170.505C993.638 170.505 993.02 170.26 992.506 169.77C992.016 169.28 991.771 168.673 991.771 167.95C991.771 167.227 992.016 166.608 992.506 166.095C993.02 165.582 993.638 165.325 994.361 165.325C995.061 165.325 995.656 165.582 996.146 166.095C996.66 166.608 996.916 167.227 996.916 167.95C996.916 168.673 996.66 169.28 996.146 169.77C995.656 170.26 995.061 170.505 994.361 170.505ZM1003.23 190L1002.49 164.38H1007.39L1008.13 190H1003.23ZM1003.02 200.815L1002.42 198.365C1003.24 198.225 1003.85 198.108 1004.24 198.015C1004.66 197.922 1005.11 197.817 1005.57 197.7L1005.22 198.575C1004.62 198.365 1004.03 197.945 1003.47 197.315C1002.94 196.708 1002.67 196.008 1002.67 195.215C1002.67 194.375 1002.86 193.698 1003.23 193.185C1003.6 192.672 1004.08 192.298 1004.66 192.065C1005.25 191.832 1005.85 191.715 1006.48 191.715C1006.83 191.715 1007.16 191.738 1007.46 191.785C1007.79 191.832 1008.08 191.902 1008.34 191.995L1008.06 194.515C1007.83 194.468 1007.59 194.422 1007.36 194.375C1007.13 194.328 1006.87 194.305 1006.59 194.305C1006.29 194.305 1006.01 194.398 1005.75 194.585C1005.52 194.795 1005.4 195.04 1005.4 195.32C1005.4 195.717 1005.54 196.067 1005.82 196.37C1006.1 196.673 1006.43 196.907 1006.8 197.07C1007.2 197.257 1007.52 197.362 1007.78 197.385L1005.85 197.595C1006.48 197.432 1007.08 197.257 1007.64 197.07C1008.2 196.907 1008.72 196.732 1009.21 196.545L1009.91 198.89C1009.33 199.1 1008.64 199.322 1007.85 199.555C1007.08 199.812 1006.27 200.045 1005.43 200.255C1004.62 200.465 1003.81 200.652 1003.02 200.815Z" fill="#403DA8"/>
</svg>
