<svg id="Layer_1" data-name="Layer 1" xmlns="http://www.w3.org/2000/svg" viewBox="0 0 600 250"><defs><style>.cls-1{fill:#008fbe;}.cls-2{fill:#00a6ce;}.cls-3{fill:#00b189;}.cls-4{fill:#007853;}.cls-5{fill:#3c3f42;}</style></defs><polygon class="cls-1" points="419.18 87.22 376.63 126.89 376.73 196.34 419.18 178.75 419.18 87.22"/><polygon class="cls-1" points="485.03 25.81 442.6 65.38 442.6 172.6 485.05 156.67 485.03 25.81"/><polygon class="cls-2" points="485.05 156.67 485.05 156.67 442.6 172.6 493.68 224.15 553.62 224.15 485.05 156.67"/><polygon class="cls-3" points="514.72 158.6 514.72 158.6 553.62 197.5 553.62 115.83 514.72 158.6"/><polygon class="cls-4" points="514.72 158.6 553.62 158.47 553.62 115.83 514.72 158.6"/><polygon class="cls-2" points="419.18 178.75 376.73 196.34 404.41 224.15 464.26 224.15 419.18 178.75"/><path class="cls-5" d="M144.66,193.44a3,3,0,0,0-1.12,2.49V224h17.74V220.1H147.67v-9.91h12.16v-3.95H147.67v-8.92a5.09,5.09,0,0,1,.06-.77,1.76,1.76,0,0,1,.36,0h13.19v-3.89h-14A4.1,4.1,0,0,0,144.66,193.44Z"/><rect class="cls-5" x="168.51" y="210.9" width="12.96" height="4.01"/><path class="cls-5" d="M214,192.63a2.3,2.3,0,0,0-2.11,1.38l-8.73,19.84-9-19.87a2.34,2.34,0,0,0-2.17-1.35,2.31,2.31,0,0,0-2.3,2.3V224h4.2V203.25l7.48,16.58h3.52l7.29-16.49V224h4.14V194.93A2.31,2.31,0,0,0,214,192.63Z"/><path class="cls-5" d="M236.38,192.63h-.54a2.34,2.34,0,0,0-2.16,1.5L222.56,224h4.33l3.72-10h10.88l3.71,10h4.4l-11.06-29.86A2.33,2.33,0,0,0,236.38,192.63ZM232.15,210l4-10.57L240,210Z"/><path class="cls-5" d="M274.47,197.55a3.52,3.52,0,0,0,.74-2,2.54,2.54,0,0,0-.61-1.7,3.33,3.33,0,0,0-1.42-.95,4.86,4.86,0,0,0-1.58-.27H254.44v4h15.71l-15.89,23.69V224h21.21v-4h-16.1Z"/><path class="cls-5" d="M295,192.63a2.71,2.71,0,0,0-2.52,1.75l-11,29.61h4.33l3.71-10h10.88l3.72,10h4.39l-11-29.6A2.7,2.7,0,0,0,295,192.63ZM291,210l4-10.57L298.88,210Z"/><path class="cls-5" d="M337.14,200.74a13.23,13.23,0,0,0-3.11-4.85,10.81,10.81,0,0,0-4.32-2.55,15.62,15.62,0,0,0-4.59-.71h-6.68a4.1,4.1,0,0,0-2.62.81,3,3,0,0,0-1.12,2.49V224h10.42a15.67,15.67,0,0,0,4.59-.71,10.81,10.81,0,0,0,4.32-2.55,13.32,13.32,0,0,0,3.11-4.86,21.17,21.17,0,0,0,1.16-7.53A21.43,21.43,0,0,0,337.14,200.74Zm-3,7.6a17.17,17.17,0,0,1-.91,6.17A9.5,9.5,0,0,1,331,218a6.76,6.76,0,0,1-2.81,1.63,11.7,11.7,0,0,1-3.05.44h-6.28V197.32a6.09,6.09,0,0,1,.05-.77,1.81,1.81,0,0,1,.37,0h5.86a10.84,10.84,0,0,1,3,.46,7.21,7.21,0,0,1,2.83,1.67,9.59,9.59,0,0,1,2.21,3.52A17.21,17.21,0,0,1,334.1,208.34Z"/><path class="cls-5" d="M221.35,58.51c.65,2.23.74,10,.27,11.66a9.48,9.48,0,0,1-2.05,3.94,7.39,7.39,0,0,1-3.35,2.06,16.8,16.8,0,0,1-4.7.59H192.3V69.85H211c1.87,0,3.08-.49,3.62-1.46a10.79,10.79,0,0,0,.81-4.91c0-4-.49-4.92-2.25-6.93s-4.66-2.36-7.9-2.36H196V47.71h9.18a20.18,20.18,0,0,1,7.78,1.35,14.4,14.4,0,0,1,5.34,3.72A14.68,14.68,0,0,1,221.35,58.51ZM229,76.76h6.91V26.33H229Zm84.45-50.43h6.91V63.48q0,7.67-2.76,10.47c-1.83,1.87-4.59,2.81-8.26,2.81H300a16.27,16.27,0,0,1-4.86-.7A16.8,16.8,0,0,1,291,74.17a10,10,0,0,1-4.37,2,27.3,27.3,0,0,1-5.67.54H259.79a16.44,16.44,0,0,1-2.86-.26,13.48,13.48,0,0,1-2.75-.81v.06h0c0,.11,0,.21,0,.33v.58a24,24,0,0,1-1.51,9.13,18.51,18.51,0,0,1-1,2A15,15,0,0,1,249,91.46a14.21,14.21,0,0,1-5.46,3.34l-2.64-6.26a7.71,7.71,0,0,0,3.07-2,10.72,10.72,0,0,0,2.22-3.72,20.05,20.05,0,0,0,1-5.38c0-.26,0-.51,0-.79V55.23h6.91v13.1a17.7,17.7,0,0,0,2.64,1.09,9.25,9.25,0,0,0,2.76.43h6.91V64.56q0-8.76,4-12.8a15.56,15.56,0,0,1,21.06.11q4,4.16,4,12.69a8.81,8.81,0,0,1-.87,4.1,15.53,15.53,0,0,0,2.38.86,9.22,9.22,0,0,0,2.48.33h9.4c1.94,0,3.19-.56,3.73-1.68a12.47,12.47,0,0,0,.81-5.13Zm-25,38.23c0-3.75-.69-6.39-2-7.94A7,7,0,0,0,281,54.3a6.75,6.75,0,0,0-5.45,2.37c-1.34,1.59-2,4.21-2,7.89v5.29H281a16.67,16.67,0,0,0,3.13-.27,5.16,5.16,0,0,0,2.38-1.08A4.36,4.36,0,0,0,288.52,64.56Zm42.87-38.23V76.76h6.91V26.33Zm-77.23,12.9h-7v6.61h7Z"/><path class="cls-5" d="M122.22,135.5h6.91V144a24.39,24.39,0,0,1-.7,6.31,10,10,0,0,1-2.05,4.05,7.11,7.11,0,0,1-3.41,2.11,17,17,0,0,1-4.75.59H110a7.11,7.11,0,0,1-3.51-.81,7.91,7.91,0,0,1-2.49-2.15,17.28,17.28,0,0,1-1.83-3.08c-.54-1.15-1.07-2.34-1.57-3.57a20.44,20.44,0,0,0-3.18-5.23,6,6,0,0,0-4.7-2.22q-4.65,0-4.65,2.92a2.11,2.11,0,0,0,1.14,1.72c.75.51,1.56,1,2.43,1.52a19.78,19.78,0,0,1,2.59,1.56,15.3,15.3,0,0,1,2.38,2.11,9.24,9.24,0,0,1,1.72,2.86,10.6,10.6,0,0,1,.65,3.83,13.38,13.38,0,0,1-1.19,6.16,8.73,8.73,0,0,1-3.08,3.45,11.06,11.06,0,0,1-4.37,1.57,34,34,0,0,1-5.08.38H69.19a23,23,0,0,1-6.31-.87,13.24,13.24,0,0,1-5.4-3,15.3,15.3,0,0,1-3.78-5.78,25.21,25.21,0,0,1-1.46-9.29H59a18.58,18.58,0,0,0,.87,6.26,9.5,9.5,0,0,0,2.27,3.73,6.84,6.84,0,0,0,3.18,1.78,15.19,15.19,0,0,0,3.62.43H84.75a13.41,13.41,0,0,0,5.56-.86c1.19-.58,1.78-1.91,1.78-4a3.15,3.15,0,0,0-1.24-2.37,17.48,17.48,0,0,0-2.76-2,24.6,24.6,0,0,1-2.53-1.45,12.07,12.07,0,0,1-2.22-1.84,8.74,8.74,0,0,1-1.62-2.43,7.94,7.94,0,0,1-.65-3.35,10.2,10.2,0,0,1,.92-4.48,7.67,7.67,0,0,1,2.54-3,11.24,11.24,0,0,1,3.73-1.68,17.92,17.92,0,0,1,4.48-.54,12.05,12.05,0,0,1,5.18,1.08,14.51,14.51,0,0,1,4,2.81,17.69,17.69,0,0,1,2.91,3.83,40.92,40.92,0,0,1,2,4.16l1.46,3.46c.4.94.92,1.4,1.57,1.4h7.77c1.95,0,3.19-.52,3.73-1.56a11.6,11.6,0,0,0,.81-5Zm39.85-1.87q3.88,4.11,3.88,12.64v9.47a28.16,28.16,0,0,1-1.4,9.55,16.37,16.37,0,0,1-3.78,6.16,14.12,14.12,0,0,1-5.45,3.35l-2.65-6.27a7.72,7.72,0,0,0,3.08-2,10.76,10.76,0,0,0,2.21-3.73A20.11,20.11,0,0,0,159,157H151.7a22.44,22.44,0,0,1-5.78-.7,10.7,10.7,0,0,1-4.53-2.43c-1.26-1.15-3.95-4.75-3.95-7.63q0-8.43,3.95-12.58a13.51,13.51,0,0,1,10.31-4.16A13.65,13.65,0,0,1,162.07,133.63Zm-2.92,12.64q0-5.51-2-7.89A6.75,6.75,0,0,0,151.7,136a6.66,6.66,0,0,0-5.35,2.37q-2,2.38-2,7.89c0,3.38,5.12,3.85,7.35,3.85h7.45Zm111.55-3a12.37,12.37,0,0,1-.81,5.13c-.54,1.12-1.78,1.67-3.72,1.67h-9.29a9.47,9.47,0,0,1-2.64-.38,16.87,16.87,0,0,1-2.54-.91q.31-1.19.54-2.49a17.47,17.47,0,0,0,.21-2.81q0-7.12-4-10.25T238,130.14h-9.72l17.82-19.87L241,105.52l-23,25.6V137h20a9.41,9.41,0,0,1,5.46,1.4q2,1.41,2,5.18c0,2.6-.66,4.34-2,5.24a9.65,9.65,0,0,1-5.46,1.35H212.5a10,10,0,0,1-3-.48,13.69,13.69,0,0,1-2.91-1.35,27.89,27.89,0,0,0,.32-4.43V135.5H200v8a12.22,12.22,0,0,1-.76,5c-.5,1-1.72,1.56-3.67,1.56h-6.26a8.94,8.94,0,0,1-2.76-.43,18.77,18.77,0,0,1-2.64-1.08V135.5H177v21.43c0,.21,0,.41,0,.62a20.57,20.57,0,0,1-1.06,5.54,10.77,10.77,0,0,1-2.22,3.73,7.68,7.68,0,0,1-3.07,2l2.64,6.27a14.16,14.16,0,0,0,5.46-3.35,14.44,14.44,0,0,0,2.56-3.51,17.63,17.63,0,0,0,1.11-2.17,23.93,23.93,0,0,0,1.51-9.12V156h0V156a12.88,12.88,0,0,0,2.75.81,16.44,16.44,0,0,0,2.86.26h6.59a17.08,17.08,0,0,0,4.54-.54,7.11,7.11,0,0,0,3.35-2.05,16.37,16.37,0,0,0,9,2.59h25a24.92,24.92,0,0,0,5.62-.59,10.5,10.5,0,0,0,4.43-2.11,19.18,19.18,0,0,0,4.37,1.95,16.91,16.91,0,0,0,5,.75h9.18q5.5,0,8.26-2.8t2.75-10.48V106.6H270.7Zm42.66,0a12.37,12.37,0,0,1-.81,5.13c-.54,1.12-1.78,1.67-3.73,1.67h-1.51l-10.26-34h-7l10.05,34H284.31V157h25.05q5.4,0,8.21-2.8t2.81-10.48V106.6h-7ZM300,163.78a7.54,7.54,0,0,0-1.73,4.92,7.64,7.64,0,0,0,.22,1.72c.14.65.28,1.23.43,1.73H296.3V176h12.85v-3.89h-5.73a8.74,8.74,0,0,1-.86-1.83,6,6,0,0,1-.32-1.84,3.83,3.83,0,0,1,.64-2.16,2.4,2.4,0,0,1,2.16-1h4.11v-3.67H305A6.18,6.18,0,0,0,300,163.78Zm31.42-57.18V157h6.91V106.6ZM212,119.51h-7v6.6h7Zm-10.87,0h-7v6.6h7Zm-72.17,0h-7v6.6h7ZM77.09,182h7v-6.61h-7Zm-10.87,0h7v-6.61h-7Z"/></svg>