<svg width="161" height="112" viewBox="0 0 161 112" fill="none" xmlns="http://www.w3.org/2000/svg">
<path d="M76.7861 41.607V18.0358H82.6789V41.607H76.7861Z" fill="#DB2768"/>
<path d="M61.2514 53.0358V45.893C61.2514 45.893 55.0725 39.4639 55.18 29.4646C55.3248 16.0034 66.1825 5.08295 79.6441 5.17906C82.8313 5.20181 87.6798 6.60762 87.6798 6.60762V29.8217H93.0368V3.03622C93.0368 3.03622 85.0068 -0.0463856 79.6441 0.000530144C63.3228 0.143319 50.1542 13.1434 50.0015 29.4646C49.8489 45.7858 61.2514 53.0358 61.2514 53.0358Z" fill="#21204C"/>
<path d="M98.0358 6.96421V14.107C98.0358 14.107 104.215 20.5361 104.107 30.5354C103.962 43.9966 93.1047 54.9171 79.6431 54.8209C76.4559 54.7982 71.6075 53.3924 71.6075 53.3924V30.1783H66.2504V56.9638C66.2504 56.9638 74.2805 60.0464 79.6431 59.9995C95.9644 59.8567 109.133 46.8566 109.286 30.5354C109.438 14.2142 98.0358 6.96421 98.0358 6.96421Z" fill="#DB2768"/>
<path d="M34.56 72.08C34.8533 72.4 35.08 72.7867 35.24 73.24C35.4 73.6933 35.48 74.1467 35.48 74.6C34.5733 74.6 33.8933 74.76 33.44 75.08C33.0133 75.4 32.8 75.92 32.8 76.64V95.44C32.8 96.1867 33 96.7067 33.4 97C33.8267 97.2933 34.52 97.44 35.48 97.44C35.48 97.92 35.4 98.3867 35.24 98.84C35.08 99.2933 34.8533 99.68 34.56 100H24.64C24.3733 99.68 24.16 99.2933 24 98.84C23.84 98.3867 23.76 97.92 23.76 97.44C24.6933 97.44 25.3867 97.2933 25.84 97C26.2933 96.68 26.52 96.16 26.52 95.44V78.88L19.72 96.04C19.3733 96.8667 18.8933 97.44 18.28 97.76C17.6667 98.0533 16.8667 98.2 15.88 98.2L7.96 78.88V95.44C7.96 96.16 8.21333 96.68 8.72 97C9.25333 97.2933 10.0533 97.44 11.12 97.44C11.12 97.92 11.04 98.3867 10.88 98.84C10.72 99.2933 10.5067 99.68 10.24 100H1.92C1.65333 99.68 1.44 99.2933 1.28 98.84C1.12 98.3867 1.04 97.92 1.04 97.44C2.02667 97.44 2.74667 97.2933 3.2 97C3.65333 96.68 3.88 96.16 3.88 95.44V76.64C3.88 75.92 3.64 75.4 3.16 75.08C2.68 74.76 1.97333 74.6 1.04 74.6C1.04 74.1467 1.12 73.6933 1.28 73.24C1.44 72.7867 1.66667 72.4 1.96 72.08H8.24C9.49333 72.08 10.4933 72.2667 11.24 72.64C11.9867 72.9867 12.5867 73.6933 13.04 74.76L17.28 85.2L18.88 90.16L20.4 85.2L25.44 72.08H34.56ZM40.6034 94.36C40.6034 92.5733 41.1901 91.16 42.3634 90.12C43.5368 89.08 45.2701 88.56 47.5634 88.56C48.3634 88.56 49.1768 88.64 50.0034 88.8C50.8568 88.96 51.5501 89.1733 52.0834 89.44V84.12C52.0834 83.0533 51.8168 82.2933 51.2834 81.84C50.7501 81.36 50.0301 81.12 49.1234 81.12C48.2434 81.12 47.5234 81.3333 46.9634 81.76C47.4701 81.92 47.8434 82.2 48.0834 82.6C48.3501 82.9733 48.4834 83.4 48.4834 83.88C48.4834 84.7333 48.1768 85.4267 47.5634 85.96C46.9501 86.4933 46.1768 86.76 45.2434 86.76C44.2301 86.76 43.4168 86.4667 42.8034 85.88C42.1901 85.2933 41.8834 84.5333 41.8834 83.6C41.8834 82.6667 42.2034 81.7867 42.8434 80.96C43.4834 80.1333 44.4568 79.4667 45.7634 78.96C47.0968 78.4533 48.7368 78.2 50.6834 78.2C53.3234 78.2 55.3234 78.7467 56.6834 79.84C58.0434 80.9067 58.7234 82.48 58.7234 84.56V95.16C58.7234 96.44 59.3368 97.2133 60.5634 97.48V98.76C60.2168 99.24 59.6434 99.6133 58.8434 99.88C58.0434 100.147 57.2301 100.28 56.4034 100.28C54.5901 100.28 53.3101 99.6533 52.5634 98.4C51.9501 98.9333 51.2034 99.3867 50.3234 99.76C49.4434 100.107 48.4434 100.28 47.3234 100.28C45.3234 100.28 43.6968 99.7333 42.4434 98.64C41.2168 97.52 40.6034 96.0933 40.6034 94.36ZM52.0834 92.52C51.7901 92.3333 51.4301 92.1733 51.0034 92.04C50.6034 91.9067 50.2168 91.84 49.8434 91.84C49.0968 91.84 48.4834 92.08 48.0034 92.56C47.5234 93.0133 47.2834 93.68 47.2834 94.56C47.2834 95.28 47.5234 95.88 48.0034 96.36C48.4834 96.8133 49.1234 97.04 49.9234 97.04C50.3234 97.04 50.7101 96.9867 51.0834 96.88C51.4834 96.7467 51.8168 96.5867 52.0834 96.4V92.52ZM75.0478 97.28C76.3545 97.28 77.3811 97.08 78.1278 96.68C78.8745 96.28 79.4345 95.7333 79.8078 95.04C80.2078 94.32 80.5545 93.36 80.8478 92.16H83.8478V93.56C83.8478 94.92 83.7811 96.1333 83.6478 97.2C83.5145 98.24 83.2345 99.1733 82.8078 100H65.8478L64.7278 98.48L74.6478 83.6L76.5678 81.48H73.2078C71.9545 81.48 71.0478 81.8267 70.4878 82.52C69.9278 83.2133 69.6478 84.36 69.6478 85.96H66.4478C66.1545 85.1333 65.9678 84.24 65.8878 83.28C65.8345 82.2933 65.7945 80.8 65.7678 78.8H82.7678L83.9678 80.44L74.8078 94.76L72.4078 97.28H75.0478ZM88.7612 94.36C88.7612 92.5733 89.3479 91.16 90.5212 90.12C91.6946 89.08 93.4279 88.56 95.7212 88.56C96.5212 88.56 97.3346 88.64 98.1612 88.8C99.0146 88.96 99.7079 89.1733 100.241 89.44V84.12C100.241 83.0533 99.9746 82.2933 99.4412 81.84C98.9079 81.36 98.1879 81.12 97.2812 81.12C96.4012 81.12 95.6812 81.3333 95.1212 81.76C95.6279 81.92 96.0012 82.2 96.2412 82.6C96.5079 82.9733 96.6412 83.4 96.6412 83.88C96.6412 84.7333 96.3346 85.4267 95.7212 85.96C95.1079 86.4933 94.3346 86.76 93.4012 86.76C92.3879 86.76 91.5746 86.4667 90.9612 85.88C90.3479 85.2933 90.0412 84.5333 90.0412 83.6C90.0412 82.6667 90.3612 81.7867 91.0012 80.96C91.6412 80.1333 92.6146 79.4667 93.9212 78.96C95.2546 78.4533 96.8946 78.2 98.8412 78.2C101.481 78.2 103.481 78.7467 104.841 79.84C106.201 80.9067 106.881 82.48 106.881 84.56V95.16C106.881 96.44 107.495 97.2133 108.721 97.48V98.76C108.375 99.24 107.801 99.6133 107.001 99.88C106.201 100.147 105.388 100.28 104.561 100.28C102.748 100.28 101.468 99.6533 100.721 98.4C100.108 98.9333 99.3612 99.3867 98.4812 99.76C97.6012 100.107 96.6012 100.28 95.4812 100.28C93.4812 100.28 91.8546 99.7333 90.6012 98.64C89.3746 97.52 88.7612 96.0933 88.7612 94.36ZM100.241 92.52C99.9479 92.3333 99.5879 92.1733 99.1612 92.04C98.7612 91.9067 98.3746 91.84 98.0012 91.84C97.2546 91.84 96.6412 92.08 96.1612 92.56C95.6812 93.0133 95.4412 93.68 95.4412 94.56C95.4412 95.28 95.6812 95.88 96.1612 96.36C96.6412 96.8133 97.2812 97.04 98.0812 97.04C98.4812 97.04 98.8679 96.9867 99.2412 96.88C99.6412 96.7467 99.9746 96.5867 100.241 96.4V92.52ZM134.806 99C134.432 99.48 133.872 99.8533 133.126 100.12C132.379 100.387 131.579 100.52 130.726 100.52C129.952 100.52 129.192 100.347 128.446 100C127.699 99.68 127.179 99.2267 126.886 98.64C126.352 99.3333 125.686 99.8133 124.886 100.08C124.112 100.373 123.139 100.52 121.966 100.52C120.472 100.52 119.099 100.147 117.846 99.4C116.592 98.6267 115.579 97.4933 114.806 96C114.059 94.48 113.686 92.6267 113.686 90.44C113.686 87.8533 114.166 85.6533 115.126 83.84C116.112 82.0267 117.406 80.6667 119.006 79.76C120.606 78.8533 122.366 78.4 124.286 78.4C124.739 78.4 125.552 78.4533 126.726 78.56L126.606 76.16V74.16C126.606 73.4933 126.419 73 126.046 72.68C125.672 72.36 124.966 72.2 123.926 72.2V70.56C124.859 70.0533 126.072 69.6 127.566 69.2C129.059 68.8 130.232 68.6 131.086 68.6C131.699 68.6 132.139 68.7467 132.406 69.04C132.699 69.3067 132.846 69.7733 132.846 70.44V95.56C132.846 96.8667 133.486 97.64 134.766 97.88L134.806 99ZM124.726 97.12C125.552 97.12 126.179 96.88 126.606 96.4V82.4C126.046 81.6267 125.299 81.24 124.366 81.24C123.192 81.24 122.246 81.8533 121.526 83.08C120.832 84.3067 120.486 86.2933 120.486 89.04C120.486 91.68 120.872 93.6933 121.646 95.08C122.446 96.44 123.472 97.12 124.726 97.12ZM160.022 78.76C160.555 79.32 160.822 80.1333 160.822 81.2C160.182 81.2 159.675 81.36 159.302 81.68C158.929 82 158.622 82.5333 158.382 83.28L153.822 97.48C152.622 101.373 151.342 104.173 149.982 105.88C148.622 107.587 146.915 108.44 144.862 108.44C143.262 108.44 142.035 108.107 141.182 107.44C140.329 106.773 139.902 105.933 139.902 104.92C139.902 104.28 140.049 103.707 140.342 103.2C140.662 102.693 141.062 102.333 141.542 102.12C142.262 102.973 143.329 103.4 144.742 103.4C145.595 103.4 146.435 102.987 147.262 102.16C148.089 101.333 148.769 100.12 149.302 98.52H146.022L139.862 83.56C139.809 83.4 139.675 83.0667 139.462 82.56C139.249 82.0533 138.982 81.7067 138.662 81.52C138.342 81.3067 137.929 81.2 137.422 81.2C137.422 80.16 137.702 79.3467 138.262 78.76H147.702C148.342 79.4533 148.662 80.2667 148.662 81.2C147.435 81.2 146.822 81.8133 146.822 83.04C146.822 83.52 146.889 83.96 147.022 84.36L150.742 95.2L153.382 83.84C153.462 83.4667 153.502 83.1467 153.502 82.88C153.502 81.76 152.849 81.2 151.542 81.2C151.542 80.1067 151.795 79.2933 152.302 78.76H160.022Z" fill="#21204C"/>
</svg>
