<?xml version="1.0" encoding="UTF-8"?>
<svg width="500px" height="373px" viewBox="0 0 500 373" version="1.1" xmlns="http://www.w3.org/2000/svg" xmlns:xlink="http://www.w3.org/1999/xlink">
    <title>E9D82C67-362B-4662-9F54-714E2A7C07F3</title>
    <g id="Page-1" stroke="none" stroke-width="1" fill="none" fill-rule="evenodd">
        <g id="Login" transform="translate(-832.000000, -386.000000)" fill-rule="nonzero">
            <g id="Group-11" transform="translate(832.000000, 159.000000)">
                <g id="Mobile-login-rafiki" transform="translate(0.000000, 227.000000)">
                    <g id="freepik--background-complete--inject-2">
                        <rect id="Rectangle" fill="#E6E6E6" x="0" y="327.4" width="500" height="1"></rect>
                        <rect id="Rectangle" fill="#E6E6E6" x="91.7" y="342.53" width="33.12" height="1"></rect>
                        <rect id="Rectangle" fill="#E6E6E6" x="62.03" y="342.53" width="19.19" height="1"></rect>
                        <rect id="Rectangle" fill="#E6E6E6" x="191.36" y="346.21" width="19.19" height="1"></rect>
                        <rect id="Rectangle" fill="#E6E6E6" x="267.42" y="351.79" width="43.19" height="1"></rect>
                        <rect id="Rectangle" fill="#E6E6E6" x="252.19" y="351.79" width="6.33" height="1"></rect>
                        <rect id="Rectangle" fill="#E6E6E6" x="359.67" y="346.21" width="93.68" height="1"></rect>
                        <path d="M237,282.8 L43.91,282.8 C40.76036,282.794484 38.21,280.239645 38.21,277.09 L38.21,5.66 C38.2374055,2.5298918 40.7797764,0.00536203973 43.91,1.42108547e-14 L237,1.42108547e-14 C240.153546,1.42108547e-14 242.71,2.55645408 242.71,5.71 L242.71,277.09 C242.71,280.243546 240.153546,282.8 237,282.8 Z M43.91,0.2 C40.8984312,0.205515703 38.46,2.6484262 38.46,5.66 L38.46,277.09 C38.46,280.101574 40.8984312,282.544484 43.91,282.55 L237,282.55 C240.013192,282.544496 242.454496,280.103192 242.46,277.09 L242.46,5.66 C242.454496,2.64680786 240.013192,0.205503561 237,0.2 L43.91,0.2 Z" id="Shape" fill="#E6E6E6"></path>
                        <path d="M453.31,282.8 L260.21,282.8 C257.058737,282.794496 254.505504,280.241263 254.5,277.09 L254.5,5.66 C254.532848,2.52828036 257.078113,0.00530307708 260.21,0 L453.31,0 C456.436323,0.0108307119 458.972643,2.53377766 459,5.66 L459,277.09 C459,280.235752 456.455733,282.788982 453.31,282.8 Z M260.21,0.2 C257.196808,0.205503561 254.755504,2.64680786 254.75,5.66 L254.75,277.09 C254.755504,280.103192 257.196808,282.544496 260.21,282.55 L453.31,282.55 C456.323192,282.544496 458.764496,280.103192 458.77,277.09 L458.77,5.66 C458.764496,2.64680786 456.323192,0.205503561 453.31,0.2 L260.21,0.2 Z" id="Shape" fill="#E6E6E6"></path>
                        <rect id="Rectangle" fill="#E0E0E0" x="245.41" y="241.98" width="21.99" height="87.23"></rect>
                        <polygon id="Path" fill="#FAFAFA" points="263.22 329.21 267.4 329.21 267.4 317.33 258.84 317.33"></polygon>
                        <rect id="Rectangle" fill="#E0E0E0" x="149.05" y="241.98" width="21.99" height="87.23"></rect>
                        <rect id="Rectangle" fill="#FAFAFA" x="167.4" y="241.98" width="100" height="79.94"></rect>
                        <path d="M263.77,245.91 L263.77,267.06 L171,267.06 L171,245.91 L263.74,245.91 M264.13,245.52 L170.64,245.52 L170.64,267.44 L264.16,267.44 L264.16,245.52 L264.13,245.52 Z" id="Shape" fill="#E0E0E0"></path>
                        <polygon id="Path" fill="#FAFAFA" points="171.57 329.21 167.4 329.21 167.4 317.33 175.95 317.33"></polygon>
                        <path d="M215.19,256.48 C215.19,257.700549 216.179451,258.69 217.4,258.69 C218.620549,258.69 219.61,257.700549 219.61,256.48 C219.61,255.259451 218.620549,254.27 217.4,254.27 C216.179451,254.27 215.19,255.259451 215.19,256.48 L215.19,256.48 Z" id="Path" fill="#E6E6E6"></path>
                        <path d="M263.77,271.37 L263.77,292.52 L171,292.52 L171,271.37 L263.74,271.37 M264.13,270.99 L170.64,270.99 L170.64,292.91 L264.16,292.91 L264.16,271 L264.13,270.99 Z" id="Shape" fill="#E0E0E0"></path>
                        <path d="M215.19,282 C215.19,283.220549 216.179451,284.21 217.4,284.21 C218.620549,284.21 219.61,283.220549 219.61,282 C219.61,280.779451 218.620549,279.79 217.4,279.79 C216.179451,279.79 215.19,280.779451 215.19,282 Z" id="Path" fill="#E6E6E6"></path>
                        <path d="M263.77,296.84 L263.77,318 L171,318 L171,296.84 L263.74,296.84 M264.13,296.45 L170.64,296.45 L170.64,318.38 L264.16,318.38 L264.16,296.45 L264.13,296.45 Z" id="Shape" fill="#E0E0E0"></path>
                        <path d="M215.189977,307.42 C215.195517,308.639232 216.187397,309.623664 217.406637,309.62 C218.625876,309.616316 219.611806,308.625925 219.609977,307.406682 C219.608144,306.187438 218.619245,305.2 217.4,305.2 C216.812135,305.2 216.248492,305.434205 215.833748,305.850826 C215.419004,306.267446 215.18734,306.832141 215.189977,307.42 Z" id="Path" fill="#E6E6E6"></path>
                        <rect id="Rectangle" fill="#E0E0E0" x="135.62" y="191.32" width="21.99" height="137.9"></rect>
                        <polygon id="Path" fill="#FAFAFA" points="153.43 329.21 157.61 329.21 157.61 317.33 149.06 317.33"></polygon>
                        <rect id="Rectangle" fill="#E0E0E0" x="53.44" y="191.32" width="21.99" height="137.9"></rect>
                        <rect id="Rectangle" fill="#FAFAFA" x="71.78" y="191.32" width="85.83" height="130.61"></rect>
                        <path d="M153.91,195 L153.91,224.57 L75.48,224.57 L75.48,195 L153.91,195 M154.37,194.55 L75,194.55 L75,225 L154.35,225 L154.35,194.56 L154.37,194.55 Z" id="Shape" fill="#E0E0E0"></path>
                        <path d="M153.91,228.18 L153.91,306.61 L116.55,306.61 L116.55,228.18 L153.91,228.18 M154.37,227.72 L116.1,227.72 L116.1,307.07 L154.37,307.07 L154.37,227.72 Z" id="Shape" fill="#E0E0E0"></path>
                        <path d="M112.84,228.18 L112.84,306.61 L75.48,306.61 L75.48,228.18 L112.84,228.18 M113.29,227.72 L75,227.72 L75,307.07 L113.27,307.07 L113.27,227.72 L113.29,227.72 Z" id="Shape" fill="#E0E0E0"></path>
                        <polygon id="Path" fill="#FAFAFA" points="75.96 329.21 71.78 329.21 71.78 317.33 80.34 317.33"></polygon>
                        <path d="M112.479977,209.8 C112.475951,210.698805 113.014262,211.511362 113.843491,211.858129 C114.672719,212.204895 115.629216,212.017438 116.266207,211.383317 C116.903198,210.749195 117.094972,209.793554 116.751952,208.962769 C116.408932,208.131983 115.598814,207.59 114.7,207.59 C113.477823,207.59 112.485505,208.577835 112.479977,209.8 Z" id="Path" fill="#E6E6E6"></path>
                        <path d="M120.399977,265.53 C120.399977,266.428814 120.941983,267.238932 121.772769,267.581952 C122.603554,267.924972 123.559195,267.733198 124.193317,267.096207 C124.827438,266.459216 125.014895,265.502719 124.668129,264.673491 C124.321362,263.844262 123.508805,263.305951 122.61,263.309977 C122.022135,263.309977 121.458492,263.544205 121.043748,263.960826 C120.629004,264.377446 120.39734,264.942141 120.399977,265.53 Z" id="Path" fill="#E6E6E6"></path>
                        <path d="M104.569977,265.53 C104.575517,266.749232 105.567397,267.733664 106.786637,267.73 C108.005876,267.726316 108.991806,266.735925 108.989977,265.516682 C108.988144,264.297438 107.999245,263.31 106.78,263.31 C106.192135,263.31 105.628492,263.544205 105.213748,263.960826 C104.799004,264.377446 104.56734,264.942141 104.569977,265.53 L104.569977,265.53 Z" id="Path" fill="#E6E6E6"></path>
                        <path d="M102.07,152.87 L92.8,152.87 C93.6542727,157.366801 94.192258,161.917956 94.41,166.49 C94.41,171.49 87.35,191.32 97.41,191.32 C107.47,191.32 100.41,171.54 100.41,166.49 C100.644249,161.916776 101.198943,157.36561 102.07,152.87 L102.07,152.87 Z" id="Path" fill="#E0E0E0"></path>
                        <path d="M66.8,173.15 L66.8,179.15 C66.821953,185.845623 72.2443775,191.268047 78.94,191.29 L84.94,191.29 C91.6356225,191.268047 97.058047,185.845623 97.08,179.15 L97.08,173.15 L66.8,173.15 Z" id="Path" fill="#F5F5F5"></path>
                        <path d="M195.67,229.26 C195.67,236.26 203.5,241.98 213.07,241.98 L221.71,241.98 C231.28,241.98 239.11,236.26 239.11,229.26 L195.67,229.26 Z" id="Path" fill="#E0E0E0"></path>
                        <path d="M424.61,219 C419.37,223.28 412.13,231.11 405.51,242.13 C401.09,249.47 398.43,257.13 397.26,267.31 C397.26,255.81 397.33,243.46 397.37,231.8 C398.7,228.8 401.74,221.88 403.92,216.42 C411.19,198.19 413.92,193.7 420.45,177.98 C429.18,156.98 438.12,132.12 435.56,134.11 C430.34,138.16 410.34,175.61 408.18,180.97 C402.292302,195.274219 398.652605,210.403078 397.39,225.82 C397.39,214.82 397.47,204.82 397.51,197.06 C397.65,171.75 398.08,163.58 398.29,161.06 C399.1,159.78 400.05,158.29 400.61,157.49 C405.31,150.69 407.12,144.91 411.54,134.77 C417.82,120.42 423.22,94.93 421.64,96.21 C415.06,101.57 409.88,113.07 403.06,127.74 C396.24,142.41 398.19,150.84 396.84,163.36 C396.56,165.82 396.34,175.1 396.18,187.95 C394.42,174.25 391.1,165.23 385.05,157.03 C377.61,146.94 370.41,140.13 365.13,136.57 C359.85,133.01 374.25,157.79 381.13,168.57 C387.26,178.21 392.91,186.7 396.13,195.07 C395.96,212.5 395.88,234.56 395.88,255.07 C394.3,245.73 391.72,235.66 388.28,227.87 C384.14,218.51 377.78,204.15 372.71,199.28 C371.5,198.11 378.01,226.04 382.19,233.46 C386.37,240.88 389.44,247.89 392.07,252.1 C392.68,253.1 394.72,256.87 395.88,259.05 C395.88,284.12 396.02,306.24 396.24,313.77 L397.32,313.77 C397.25,311.83 397.23,299.07 397.26,282.19 C399.87,273.03 405.83,262.57 410.75,253.03 C416.11,242.7 429.85,214.75 424.61,219 Z" id="Path" fill="#E0E0E0"></path>
                        <polygon id="Path" fill="#F0F0F0" points="412.44 329.21 381.1 329.21 378.73 298.49 414.81 298.49"></polygon>
                        <polygon id="Path" fill="#F5F5F5" points="417.14 302.07 376.39 302.07 375.23 291.7 418.31 291.7"></polygon>
                        <rect id="Rectangle" fill="#E0E0E0" x="68.21" y="20.5" width="56.05" height="61.55"></rect>
                        <rect id="Rectangle" fill="#F5F5F5" x="72.43" y="20.5" width="57.9" height="61.55"></rect>
                        <rect id="Rectangle" fill="#FFFFFF" transform="translate(101.380000, 51.275000) rotate(90.000000) translate(-101.380000, -51.275000) " x="75.455" y="27.175" width="51.85" height="48.2"></rect>
                        <rect id="Rectangle" fill="#F5F5F5" transform="translate(101.375000, 51.265000) rotate(90.000000) translate(-101.375000, -51.265000) " x="88.02" y="38.85" width="26.71" height="24.83"></rect>
                        <rect id="Rectangle" fill="#E0E0E0" x="357.98" y="27.67" width="52.07" height="57.18"></rect>
                        <rect id="Rectangle" fill="#F5F5F5" x="361.91" y="27.67" width="53.78" height="57.18"></rect>
                        <rect id="Rectangle" fill="#FFFFFF" transform="translate(388.805000, 56.260000) rotate(90.000000) translate(-388.805000, -56.260000) " x="364.725" y="33.875" width="48.16" height="44.77"></rect>
                        <circle id="Oval" fill="#F5F5F5" cx="388.8" cy="56.26" r="13.97"></circle>
                        <rect id="Rectangle" fill="#E0E0E0" x="140.91" y="57.2" width="41.58" height="45.66"></rect>
                        <rect id="Rectangle" fill="#F5F5F5" x="144.04" y="57.2" width="42.95" height="45.66"></rect>
                        <rect id="Rectangle" fill="#FFFFFF" transform="translate(165.515000, 80.030000) rotate(90.000000) translate(-165.515000, -80.030000) " x="146.285" y="62.155" width="38.46" height="35.75"></rect>
                        <polygon id="Path" fill="#F5F5F5" points="165.52 70.3 155.74 87.24 175.3 87.24"></polygon>
                    </g>
                    <g id="freepik--Shadow--inject-2" transform="translate(56.110000, 349.920000)" fill="#FFFFFF">
                        <ellipse id="Oval" cx="193.89" cy="11.32" rx="193.89" ry="11.32"></ellipse>
                    </g>
                    <g id="freepik--Screen--inject-2" transform="translate(189.580000, 15.570000)">
                        <rect id="Rectangle" fill="#00AAD8" x="48.91" y="0" width="6.39" height="1.03"></rect>
                        <rect id="Rectangle" fill="#00AAD8" transform="translate(138.145957, 49.370993) rotate(-87.420000) translate(-138.145957, -49.370993) " x="129.555957" y="48.8559931" width="17.18" height="1.03"></rect>
                        <polygon id="Path" fill="#00AAD8" points="136.03 4.62 18.03 4.62 7.05 250.34 125.05 250.34"></polygon>
                        <polygon id="Path" fill="#FAFAFA" points="132.51 8 14.51 8 3.53 253.72 121.53 253.72"></polygon>
                        <polygon id="Path" fill="#00AAD8" opacity="0.07" points="128.99 11.37 10.99 11.37 0 257.09 118 257.09"></polygon>
                        <polygon id="Path" fill="#FFFFFF" points="115.56 118.54 14.84 118.54 14 137.34 114.72 137.34"></polygon>
                        <polygon id="Path" fill="#00AAD8" points="115.15 110 60.37 110 60 112.42 114.78 112.42"></polygon>
                        <polygon id="Path" fill="#FFFFFF" points="113.56 169 12.84 169 12 187.8 112.72 187.8"></polygon>
                        <polygon id="Path" fill="#000000" opacity="0.47" points="94.82 213.47 27.09 213.47 26.08 236 93.81 236"></polygon>
                        <path d="M90.29,239.5 L22.56,239.5 C22.530484,239.507621 22.499516,239.507621 22.47,239.5 C22.4600943,239.470818 22.4600943,239.439182 22.47,239.41 L23.47,216.87 C23.4698716,216.839008 23.4828232,216.8094 23.5056693,216.788457 C23.5285155,216.767515 23.5591361,216.757182 23.59,216.76 L91.32,216.76 C91.3452011,216.747497 91.3747989,216.747497 91.4,216.76 C91.4142906,216.784752 91.4142906,216.815248 91.4,216.84 L90.42,239.43 C90.3954072,239.478065 90.343665,239.505716 90.29,239.5 Z M22.68,239.26 L90.17,239.26 L91.17,216.96 L23.68,216.96 L22.68,239.26 Z" id="Shape" fill="#FFFFFF"></path>
                        <polygon id="Path" fill="#00AAD8" points="68.37 163 68 165.42 113.21 165.42 113.59 163"></polygon>
                        <path d="M93.53,57.81 C93.2714918,63.2813793 91.3257874,68.5386237 87.96,72.86 C82.9105824,79.4751272 75.0818906,83.3783948 66.76,83.43 C60.0530589,83.4811409 53.6229901,80.7590185 48.9914249,75.9078043 C44.3598598,71.0565901 41.9383756,64.5073803 42.3,57.81 C43.0300655,43.5359214 54.7577157,32.3036823 69.05,32.19 C75.7622333,32.1274076 82.2011297,34.8452671 86.8383978,39.6984864 C91.4756659,44.5517058 93.8978364,51.1075609 93.53,57.81 Z" id="Path" fill="#FFFFFF"></path>
                        <path d="M95.94,37.55 C95.8747585,39.0048228 95.3574043,40.4030775 94.46,41.55 C93.1143794,43.3068471 91.0329047,44.3438939 88.82,44.36012 C86.6717429,44.3730507 84.6566655,43.320566 83.44,41.55 C82.6465364,40.3716603 82.253804,38.9690444 82.32,37.55 C82.520701,33.7606202 85.6354412,30.7816843 89.43,30.75 C91.2125318,30.7337281 92.9225598,31.4547565 94.1552963,32.7424075 C95.3880328,34.0300585 96.0338956,35.7698685 95.94,37.55 L95.94,37.55 Z" id="Path" fill="#00AAD8"></path>
                        <path d="M89.9977227,127.999964 C89.9316959,129.114482 89.0203026,129.987843 87.9107325,129.999865 C87.388797,130.006123 86.8875702,129.794712 86.5260876,129.415839 C86.164605,129.036967 85.9751179,128.524435 86.0026272,127.999964 C86.0622601,126.882471 86.9774055,126.005515 88.0896173,126.000064 C88.6109519,125.995766 89.111014,126.207788 89.4720669,126.58621 C89.8331197,126.964633 90.0232609,127.476018 89.9977227,127.999964 L89.9977227,127.999964 Z" id="Path" fill="#263238"></path>
                        <path d="M97.9973687,128.000034 C97.9344217,129.116033 97.0197301,129.991178 95.9070973,129.999933 C95.3854883,130.004337 94.8852302,129.792114 94.5246411,129.413456 C94.1640519,129.034799 93.9751552,128.523335 94.0026277,128.000034 C94.0621954,126.885093 94.9748699,126.009097 96.0862634,126.000135 C96.6090195,125.993877 97.1110343,126.205288 97.4730853,126.58416 C97.8351362,126.963033 98.0249213,127.475564 97.9973687,128.000034 Z" id="Path" fill="#263238"></path>
                        <path d="M105.997373,128.000036 C105.934525,129.116035 105.021269,129.991181 103.910383,129.999936 C103.389048,130.004234 102.888986,129.792212 102.527933,129.41379 C102.16688,129.035367 101.976739,128.523982 102.002277,128.000036 C102.065126,126.884036 102.978381,126.00889 104.089268,126.000135 C104.611203,125.993877 105.11243,126.205288 105.473912,126.584161 C105.835395,126.963033 106.024882,127.475565 105.997373,128.000036 L105.997373,128.000036 Z" id="Path" fill="#263238"></path>
                        <path d="M80.9977225,179 C80.9316899,180.114537 80.0202169,180.987914 78.9105497,180.999936 C78.3891696,181.004234 77.8890638,180.792208 77.5279793,180.413779 C77.1668949,180.03535 76.9767371,179.523955 77.0022775,179 C77.0651312,177.88398 77.9784668,177.008819 79.0894503,177.000064 C79.6108304,176.995766 80.1109362,177.207792 80.4720207,177.586221 C80.8331051,177.96465 81.0232629,178.476045 80.9977225,179 Z" id="Path" fill="#263238"></path>
                        <path d="M88.9973723,178.999966 C88.9346015,180.113425 88.0238023,180.987621 86.9137366,180.999865 C86.3909805,181.006123 85.8889657,180.794712 85.5269147,180.41584 C85.1648638,180.036967 84.9750787,179.524436 85.0026313,178.999966 C85.0655783,177.883967 85.9802699,177.008822 87.0929027,177.000067 C87.6145117,176.995663 88.1147698,177.207886 88.4753589,177.586544 C88.8359481,177.965201 89.0248448,178.476665 88.9973723,178.999966 L88.9973723,178.999966 Z" id="Path" fill="#263238"></path>
                        <path d="M96.9973726,179.000058 C96.9345194,180.11607 96.02119,180.991225 94.9102142,181 C94.3894354,181.002344 93.8904809,180.789717 93.5298214,180.411734 C93.1691619,180.03375 92.9783602,179.523488 93.001955,179.000058 C93.0679871,177.885528 93.9794539,177.012157 95.0891135,177.000135 C95.611091,176.993877 96.1123582,177.20529 96.47387,177.584167 C96.8353817,177.963044 97.0248842,178.475582 96.9973726,179.000058 L96.9973726,179.000058 Z" id="Path" fill="#263238"></path>
                        <path d="M104.997722,179.000022 C104.931684,180.114572 104.020138,180.987959 102.910381,181 C102.389557,181.002344 101.890559,180.789714 101.529868,180.411723 C101.169177,180.033733 100.978358,179.523462 101.001955,179.000022 C101.067993,177.885472 101.97954,177.012086 103.089296,177.000064 C103.610718,176.995766 104.110865,177.207794 104.471978,177.586227 C104.833092,177.964661 105.023265,178.476061 104.997722,179.000022 L104.997722,179.000022 Z" id="Path" fill="#263238"></path>
                        <ellipse id="Oval" fill="#F5F5F5" transform="translate(68.290859, 49.233105) rotate(-44.360000) translate(-68.290859, -49.233105) " cx="68.2908587" cy="49.2331054" rx="10.6" ry="10.13"></ellipse>
                        <path d="M87.96,72.86 C82.9105824,79.4751272 75.0818906,83.3783948 66.76,83.43 C58.673723,83.4985904 51.0844384,79.535214 46.52,72.86 C51.38,68.02 59.07,64.86 67.59,64.86 C76.11,64.86 83.53,68.02 87.96,72.86 Z" id="Path" fill="#F5F5F5"></path>
                    </g>
                </g>
            </g>
        </g>
    </g>
</svg>