<svg width="124" height="124" viewBox="0 0 124 124" fill="none" xmlns="http://www.w3.org/2000/svg">
<path d="M39.538 76.1828L58.4839 71.1079C58.7112 71.0494 58.9497 71.0494 59.177 71.1081C59.4043 71.1667 59.6131 71.282 59.7837 71.4432L73.9122 85.0479C74.1283 85.2531 74.4053 85.3823 74.7013 85.4159C74.9974 85.4496 75.2964 85.3859 75.553 85.2345C75.8096 85.0831 76.01 84.8523 76.1237 84.5768C76.2374 84.3014 76.2583 83.9965 76.1832 83.7081L71.1083 64.7622C71.0498 64.5349 71.0498 64.2964 71.1084 64.0691C71.1671 63.8418 71.2824 63.633 71.4436 63.4623L85.0483 49.3339C85.2534 49.1178 85.3827 48.8408 85.4163 48.5447C85.45 48.2487 85.3863 47.9497 85.2349 47.6931C85.0835 47.4365 84.8526 47.2361 84.5772 47.1224C84.3018 47.0087 83.9969 46.9878 83.7085 47.0629L64.7626 52.1378C64.5353 52.1963 64.2968 52.1963 64.0695 52.1376C63.8422 52.079 63.6334 51.9637 63.4627 51.8025L49.3343 38.1978C49.1182 37.9926 48.8412 37.8634 48.5451 37.8298C48.2491 37.7961 47.9501 37.8598 47.6935 38.0112C47.4368 38.1626 47.2365 38.3934 47.1228 38.6689C47.0091 38.9443 46.9882 39.2492 47.0633 39.5376L52.1382 58.4835C52.1967 58.7108 52.1967 58.9493 52.138 59.1766C52.0794 59.4039 51.9641 59.6127 51.8029 59.7834L38.1982 73.9118C37.993 74.1279 37.8638 74.4049 37.8301 74.701C37.7965 74.997 37.8601 75.296 38.0115 75.5526C38.163 75.8092 38.3938 76.0096 38.6693 76.1233C38.9447 76.237 39.2496 76.2579 39.538 76.1828Z" fill="url(#paint0_linear_435_282)" stroke="#FCD34D" stroke-width="0.703125" stroke-linecap="round" stroke-linejoin="round"/>
<defs>
<linearGradient id="paint0_linear_435_282" x1="40.7825" y1="49.8555" x2="82.464" y2="73.3902" gradientUnits="userSpaceOnUse">
<stop stop-color="#FCD966"/>
<stop offset="0.5" stop-color="#FCD966"/>
<stop offset="1" stop-color="#FCCD34"/>
</linearGradient>
</defs>
</svg>
