<svg width="59" height="59" viewBox="0 0 59 59" fill="none" xmlns="http://www.w3.org/2000/svg">
<path d="M12.1803 30.3643L24.568 33.8098C24.7158 33.8524 24.8505 33.9319 24.9593 34.0407C25.0681 34.1495 25.1476 34.2842 25.1902 34.432L28.6357 46.8197C28.6894 47.0075 28.8028 47.1728 28.9587 47.2904C29.1146 47.408 29.3047 47.4717 29.5 47.4717C29.6953 47.4717 29.8853 47.408 30.0413 47.2904C30.1972 47.1728 30.3106 47.0075 30.3643 46.8197L33.8098 34.432C33.8524 34.2842 33.9319 34.1495 34.0407 34.0407C34.1495 33.9319 34.2842 33.8524 34.432 33.8098L46.8197 30.3643C47.0075 30.3106 47.1728 30.1972 47.2904 30.0413C47.408 29.8853 47.4717 29.6953 47.4717 29.5C47.4717 29.3047 47.408 29.1146 47.2904 28.9587C47.1728 28.8028 47.0075 28.6894 46.8197 28.6357L34.432 25.1902C34.2842 25.1476 34.1495 25.0681 34.0407 24.9593C33.9319 24.8505 33.8524 24.7158 33.8098 24.568L30.3643 12.1803C30.3106 11.9924 30.1972 11.8272 30.0413 11.7096C29.8853 11.592 29.6953 11.5283 29.5 11.5283C29.3047 11.5283 29.1146 11.592 28.9587 11.7096C28.8028 11.8272 28.6894 11.9924 28.6357 12.1803L25.1902 24.568C25.1476 24.7158 25.0681 24.8505 24.9593 24.9593C24.8505 25.0681 24.7158 25.1476 24.568 25.1902L12.1803 28.6357C11.9924 28.6894 11.8272 28.8028 11.7096 28.9587C11.592 29.1146 11.5283 29.3047 11.5283 29.5C11.5283 29.6953 11.592 29.8853 11.7096 30.0413C11.8272 30.1972 11.9924 30.3106 12.1803 30.3643Z" fill="url(#paint0_linear_435_284)" stroke="#FCD34D" stroke-width="0.703125" stroke-linecap="round" stroke-linejoin="round"/>
<defs>
<linearGradient id="paint0_linear_435_284" x1="21.6525" y1="15.9139" x2="37.3475" y2="43.0861" gradientUnits="userSpaceOnUse">
<stop stop-color="#FCD966"/>
<stop offset="0.5" stop-color="#FCD966"/>
<stop offset="1" stop-color="#FCCD34"/>
</linearGradient>
</defs>
</svg>
