<svg xmlns="http://www.w3.org/2000/svg" xmlns:xlink="http://www.w3.org/1999/xlink" width="63px" height="53px" viewBox="0 0 63 53" version="1.1">
    <!-- Generator: sketchtool 62 (101010) - https://sketch.com -->
    <title>42D9DA35-1A4D-4F35-A735-8381FDB95DC3</title>
    <desc>Created with sketchtool.</desc>
    <g id="Page-1" stroke="none" stroke-width="1" fill="none" fill-rule="evenodd">
        <g id="Landing" transform="translate(-258.000000, -1846.000000)" fill-rule="nonzero">
            <g id="Group-11" transform="translate(171.000000, 1846.000000)">
                <g id="Group-9-Copy">
                    <g id="Ico-3" transform="translate(87.000000, 0.000000)">
                        <path d="M47.5374191,46.330826 L48.1063718,45.3906614 L49.1366644,45.008413 C50.6786049,44.4363386 51.8967865,43.2311338 52.4697648,41.6568889 L59.2506136,23.0266598 C60.3131341,20.1074089 58.8079566,16.8795454 55.8887056,15.8170249 L23.9912215,4.20729012 C21.0719705,3.14476965 17.844107,4.64994711 16.7815866,7.56919809 L12.9945035,17.9741234 L8.77500045,17.9741234 C5.66839854,17.9741234 3.15,20.4925219 3.15,23.5991239 L3.15,43.4249996 C3.15,46.5316015 5.66839854,49.05 8.77500045,49.05 L42.7195941,49.05 C44.7132472,49.05 46.5229062,48.007256 47.5374191,46.330826 Z M42.7195941,52.2 L8.77500045,52.2 C3.92870151,52.2 0,48.2712985 0,43.4249995 L0,23.5991239 C0,18.752825 3.92870151,14.8241234 8.77500045,14.8241234 L10.7888497,14.8241234 L13.8215548,6.49183464 C15.4790867,1.93780332 20.5145536,-0.41027346 25.068585,1.24725834 L56.9660691,12.8569932 C61.5201005,14.514525 63.8681773,19.549992 62.2106454,24.1040233 L55.4297965,42.7342523 C54.5130181,45.2530804 52.5628686,47.0970672 50.2323643,47.9617064 C48.6950381,50.502058 45.9056039,52.2 42.7195941,52.2 Z" id="Shape" fill="#262929"/>
                        <polygon id="Path" fill="#07C0DE" points="1.28918916 31.3226508 1.28918916 25.0226508 50.2409048 25.0226508 50.2409048 31.3226508"/>
                        <path d="M9.76621626,43.98608 C8.8963677,43.98608 8.19121626,43.2809284 8.19121626,42.41108 C8.19121626,41.5412314 8.8963677,40.83608 9.76621626,40.83608 L15.9810811,40.83608 C16.8509296,40.83608 17.5560811,41.5412314 17.5560811,42.41108 C17.5560811,43.2809284 16.8509296,43.98608 15.9810811,43.98608 L9.76621626,43.98608 Z" id="Path" fill="#E0BB60"/>
                        <path d="M23.9716216,43.98608 C23.1017731,43.98608 22.3966216,43.2809284 22.3966216,42.41108 C22.3966216,41.5412314 23.1017731,40.83608 23.9716216,40.83608 L31.9621621,40.83608 C32.8320106,40.83608 33.5371621,41.5412314 33.5371621,42.41108 C33.5371621,43.2809284 32.8320106,43.98608 31.9621621,43.98608 L23.9716216,43.98608 Z" id="Path" fill="#E0BB60"/>
                        <path d="M8.77500045,17.9741234 C5.66839854,17.9741234 3.15,20.4925219 3.15,23.5991239 L3.15,43.4249996 C3.15,46.5316015 5.66839854,49.05 8.77500045,49.05 L42.7195941,49.05 C45.8261961,49.05 48.3445946,46.5316015 48.3445946,43.4249996 L48.3445946,23.5991239 C48.3445946,20.4925219 45.8261961,17.9741234 42.7195941,17.9741234 L8.77500045,17.9741234 Z M8.77500045,14.8241234 L42.7195941,14.8241234 C47.5658931,14.8241234 51.4945946,18.752825 51.4945946,23.5991239 L51.4945946,43.4249996 C51.4945946,48.2712985 47.5658931,52.2 42.7195941,52.2 L8.77500045,52.2 C3.92870151,52.2 0,48.2712985 0,43.4249996 L0,23.5991239 C0,18.752825 3.92870151,14.8241234 8.77500045,14.8241234 Z" id="Shape" fill="#262929"/>
                    </g>
                </g>
            </g>
        </g>
    </g>
</svg>